<?xml version="1.0" encoding="utf-8"?>
<!-- Generator: Adobe Illustrator 16.0.0, SVG Export Plug-In . SVG Version: 6.00 Build 0)  -->
<!DOCTYPE svg PUBLIC "-//W3C//DTD SVG 1.1//EN" "http://www.w3.org/Graphics/SVG/1.1/DTD/svg11.dtd">
<svg version="1.1" id="Layer_1" xmlns="http://www.w3.org/2000/svg" xmlns:xlink="http://www.w3.org/1999/xlink" x="0px" y="0px"
	 width="252px" height="252px" viewBox="0 0 252 252" enable-background="new 0 0 252 252" xml:space="preserve">
<g>
	<g>
		<g>
			<path fill="#E0E1E0" d="M217.638,195.688c-8.76,10.707-23.553,25.306-43.993,35.43c-0.192,0-0.192,0.192-0.389,0.192
				c-13.432,6.037-28.227,9.54-43.604,9.931c-1.169,0-2.336,0-3.699,0c-2.53,0-4.867,0-7.397-0.196
				c-34.261-2.141-64.628-19.271-84.29-44.967l0,0c3.505-32.509,30.951-57.814,64.434-57.814h54.698
				C186.492,138.264,213.94,163.376,217.638,195.688z"/>
		</g>
		<g>
			<path fill="#FED6A9" d="M123.811,129.31c-13.431,0-26.084-5.256-35.623-14.794c-9.538-9.539-14.794-22.192-14.794-35.624
				c0-27.836,22.581-50.417,50.417-50.417c27.837,0,50.417,22.581,50.417,50.417C174.229,106.729,151.648,129.31,123.811,129.31V126
				V129.31L123.811,129.31z M123.811,35.093c-24.137,0-43.798,19.661-43.798,43.799c0,11.68,4.478,22.776,12.848,30.952
				c8.37,8.37,19.271,12.847,30.951,12.847l0,0c24.138,0,43.8-19.66,43.8-43.799C167.611,54.754,147.949,35.093,123.811,35.093z"/>
		</g>
		<g>
			<path fill="#FFD552" d="M123.811,113.737c-9.343,0-18.103-3.699-24.721-10.123c-6.62-6.618-10.123-15.378-10.123-24.722
				c0-19.271,15.573-34.845,34.844-34.845c9.344,0,18.105,3.699,24.721,10.123c6.619,6.619,10.123,15.378,10.123,24.722
				C158.655,98.164,143.082,113.737,123.811,113.737z"/>
		</g>
		<g>
			<polygon fill="#264CA0" points="130.43,147.607 139.385,126 109.017,126 118.167,147.607 			"/>
		</g>
		<g>
			<path fill="#264CA0" d="M143.473,221.774l-14.016,19.66c-1.168,0-2.337,0-3.699,0c-2.53,0-4.866,0-7.396-0.193l-14.405-19.663
				l14.015-73.971h12.069C130.43,147.607,139.385,196.272,143.473,221.774z"/>
		</g>
		<g>
			<path fill="#FED6A9" d="M132.572,150.722h-16.547L104.15,122.69h40.101L132.572,150.722z M120.308,144.299h7.785l6.23-14.989
				h-20.44L120.308,144.299z"/>
		</g>
		<g>
			<path fill="#FED6A9" d="M125.953,244.743c-2.725,0-5.257,0-7.592-0.193l-1.558-0.195l-16.157-21.996l14.795-78.06h17.518
				l0.587,2.725c0,0.584,8.953,49.055,13.041,74.361l0.195,1.362l-15.573,21.996h-1.557
				C128.483,244.743,127.12,244.743,125.953,244.743z M120.308,238.125c2.335,0.195,4.867,0.195,7.592,0.195l12.263-17.13
				c-3.503-21.999-10.51-59.762-12.457-70.273h-6.813l-13.432,69.885L120.308,238.125z"/>
		</g>
		<g>
			<path fill="#FED6A9" d="M125.953,244.743c-2.725,0-5.257,0-7.592-0.193c-34.066-2.143-65.796-19.078-86.625-46.331l-0.584-0.973
				c-3.309-4.478-6.423-9.344-9.148-14.21l-0.585-1.168l0.39-1.363c9.928-34.065,41.657-57.814,77.087-57.814h54.699
				c35.429,0,67.159,23.749,77.086,57.814l0.39,1.363l-0.584,1.168c-1.753,3.31-3.503,6.035-5.256,8.76
				c-1.557,2.142-3.113,4.089-4.673,6.035c-8.954,10.899-24.137,25.89-45.16,36.4c-0.195,0.195-0.389,0.195-0.585,0.195
				c-14.21,6.424-29.199,9.733-44.772,10.316C128.483,244.743,127.12,244.743,125.953,244.743z M37.576,195.105
				c19.855,25.306,49.25,40.879,81.369,42.826c2.142,0.193,4.478,0.193,7.202,0.193c1.17,0,2.337,0,3.506,0
				c14.794-0.389,29.003-3.698,42.436-9.733l0.193-0.194c19.857-9.927,34.263-24.333,43.022-34.649
				c1.557-1.752,2.92-3.699,4.281-5.646c1.362-2.141,2.919-4.478,4.282-7.007c-9.536-30.563-38.349-51.782-70.469-51.782H98.7
				c-32.12,0-60.929,21.22-70.468,51.782c2.531,4.477,5.451,8.953,8.759,13.042L37.576,195.105z"/>
		</g>
	</g>
	<g>
		<path fill="#4B5560" d="M125.953,244.743c-2.725,0-5.257,0-7.592-0.193c-34.066-2.143-65.796-19.078-86.625-46.331l-0.584-0.973
			c-3.309-4.478-6.423-9.344-9.148-14.21c-9.539-17.325-14.6-36.985-14.6-57.036c0-65.407,53.337-118.744,118.743-118.744
			c65.408,0,118.744,53.337,118.744,118.744c0,19.855-5.061,39.516-14.601,57.036c-1.75,3.31-3.502,6.035-5.254,8.76
			c-1.558,2.142-3.115,4.089-4.672,6.035c-8.954,10.899-24.14,25.89-45.162,36.4c-0.193,0.195-0.39,0.195-0.584,0.195
			c-14.21,6.424-29.199,9.733-44.772,10.316C128.483,244.743,127.12,244.743,125.953,244.743z M37.576,195.105
			c19.855,25.306,49.25,40.879,81.369,42.826c2.142,0.193,4.478,0.193,7.202,0.193c1.17,0,2.337,0,3.506,0
			c14.794-0.389,29.003-3.698,42.436-9.733l0.193-0.194c19.857-9.927,34.263-24.333,43.022-34.649
			c1.557-1.752,2.92-3.699,4.281-5.646c1.558-2.337,3.31-5.061,4.866-8.176c8.955-16.351,13.821-35.04,13.821-53.727
			c0-61.902-50.418-112.126-112.126-112.126C64.439,13.874,13.827,64.098,13.827,126c0,18.883,4.672,37.376,13.821,53.922
			c2.725,4.867,5.84,9.733,9.343,14.21L37.576,195.105z"/>
	</g>
	<g>
		<path fill="#FED6A9" d="M125.953,244.743C60.546,244.743,7.209,191.406,7.209,126c0-65.407,53.337-118.744,118.744-118.744
			c65.405,0,118.744,53.337,118.744,118.744C244.697,191.406,191.358,244.743,125.953,244.743z M125.953,13.874
			C64.051,13.874,13.827,64.292,13.827,126c0,61.709,50.418,112.125,112.126,112.125S238.077,187.709,238.077,126
			C238.077,64.292,187.854,13.874,125.953,13.874z"/>
	</g>
</g>
</svg>
