<?xml version="1.0" encoding="utf-8"?>
<!-- Generator: Adobe Illustrator 16.0.0, SVG Export Plug-In . SVG Version: 6.00 Build 0)  -->
<!DOCTYPE svg PUBLIC "-//W3C//DTD SVG 1.1//EN" "http://www.w3.org/Graphics/SVG/1.1/DTD/svg11.dtd">
<svg version="1.1" id="Layer_1" xmlns="http://www.w3.org/2000/svg" xmlns:xlink="http://www.w3.org/1999/xlink" x="0px" y="0px"
	 width="72px" height="72px" viewBox="0 0 72 72" enable-background="new 0 0 72 72" xml:space="preserve">
<g>
	<g>
		<path fill="#E0E1E0" d="M13.83,5.794v58.407h40.334V5.794H13.83z M52.453,62.49H15.541V7.505h36.912V62.49z"/>
	</g>
</g>
<g>
	<g>
		<rect x="44.511" y="24.084" fill="#C0BBAE" width="1.712" height="9.049"/>
	</g>
</g>
<g>
	<g>
		<rect x="44.511" y="19.618" fill="#C0BBAE" width="1.712" height="3.554"/>
	</g>
</g>
<g>
	<g>
		<path fill="#E0E0DF" d="M22.902,8.817v6.313h22.191V8.817H22.902z M43.382,13.418H24.613v-2.89h18.769V13.418z"/>
	</g>
</g>
<g>
	<g>
		<rect x="38.561" y="11.118" fill="#C0BBAE" width="3.193" height="1.711"/>
	</g>
</g>
<g>
	<g>
		<rect x="26.24" y="11.118" fill="#C0BBAE" width="11.028" height="1.711"/>
	</g>
</g>
<g>
	<g>
		<rect x="21.563" y="19.122" fill="#C0BBAE" width="6.464" height="1.711"/>
	</g>
</g>
<path fill="#E0E0DF" d="M18.887,16.405V51.88h30.22V16.405H18.887z M47.396,50.169H20.598V18.116h26.798V50.169z"/>
<g>
	<g>
		<path fill="#4C5661" d="M26.5,50.591"/>
	</g>
	<g>
		<polyline fill="none" points="40.705,50.591 40.705,50.591 40.705,50.591 		"/>
	</g>
	<g>
		<g>
			<path fill="#4C5661" d="M26.87,50.136"/>
		</g>
		<g>
			<path fill="#4C5661" d="M41.074,50.136"/>
		</g>
		<g>
			<g>
				<g>
					<g>
						<path fill="#FDD5A8" d="M34.248,30.914c-2.976,0-5.397-2.422-5.397-5.399c0-2.975,2.421-5.399,5.397-5.399
							c2.976,0,5.399,2.424,5.399,5.399C39.647,28.491,37.213,30.914,34.248,30.914z M34.248,20.522
							c-2.753,0-4.993,2.238-4.993,4.993c0,2.755,2.24,4.993,4.993,4.993l0,0c2.755,0,4.993-2.238,4.993-4.993
							C39.241,22.76,37.003,20.522,34.248,20.522z"/>
					</g>
					<g>
						<path fill="#FFD552" d="M34.248,30.053c-2.498,0-4.537-2.029-4.537-4.538c0-2.508,2.028-4.537,4.537-4.537
							c2.496,0,4.538,2.029,4.538,4.537C38.786,28.024,36.744,30.053,34.248,30.053z"/>
					</g>
					<g>
						<rect x="26.673" y="40.421" fill="#4C5661" width="0.393" height="9.715"/>
					</g>
					<g>
						<path fill="#FDD5A8" d="M44.381,50.136h-0.394V36.928c0-3.321-2.704-6.014-6.013-6.014h-7.994
							c-3.321,0-6.014,2.706-6.014,6.014v13.208h-0.395V36.928c0-3.542,2.88-6.42,6.421-6.42h7.981c3.542,0,6.42,2.878,6.42,6.42
							v13.208H44.381z"/>
					</g>
					<g>
						<path fill="#E0E0DF" d="M43.521,50.136V36.928c0-3.062-2.496-5.559-5.559-5.559h-7.981c-3.063,0-5.558,2.497-5.558,5.559
							v13.208H43.521z"/>
					</g>
					<g>
						<rect x="40.876" y="40.421" fill="#FDD5A8" width="0.395" height="9.715"/>
					</g>
				</g>
				<g>
					<g>
						<polygon fill="#2A4F9E" points="34.248,30.706 31.899,30.706 33.399,33.521 34.248,33.521 35.085,33.521 36.584,30.706 						
							"/>
					</g>
					<g>
						<polygon fill="#2A4F9E" points="33.399,33.521 31.899,42.793 34.113,45.401 36.364,42.793 35.085,33.521 						"/>
					</g>
					<g>
						<path fill="#FDD5A8" d="M35.207,33.718h-1.93l-1.711-3.197h5.351L35.207,33.718z M33.523,33.324h1.451l1.278-2.411h-4.021
							L33.523,33.324z"/>
					</g>
					<g>
						<path fill="#FDD5A8" d="M34.113,45.708l-2.424-2.854l1.537-9.53h2.028l1.317,9.542L34.113,45.708z M32.109,42.732l2.004,2.361
							l2.041-2.361L34.9,33.718h-1.328L32.109,42.732z"/>
					</g>
				</g>
			</g>
		</g>
	</g>
	<g>
		<g>
			<path fill="#4C5661" d="M26.87,50.136"/>
		</g>
		<g>
			<path fill="#4C5661" d="M41.074,50.136"/>
		</g>
		<g>
			<g>
				<g>
					<g>
						<rect x="26.673" y="40.421" fill="#FDD5A8" width="0.393" height="9.715"/>
					</g>
					<g>
						<path fill="#E0E1E0" d="M43.521,50.136V36.928c0-0.136,0-0.271-0.012-0.394c-0.014-0.209-0.037-0.406-0.075-0.59
							c-0.207-1.168-0.786-2.226-1.646-3.049c-0.074-0.062-0.137-0.123-0.21-0.185c-0.787-0.664-1.733-1.106-2.741-1.266
							c-0.198-0.037-0.405-0.05-0.616-0.062"/>
					</g>
					<g>
						<rect x="40.876" y="40.421" fill="#FDD5A8" width="0.395" height="9.715"/>
					</g>
				</g>
			</g>
		</g>
	</g>
</g>
<text transform="matrix(0.8689 0 0 1 18.7627 60.5703)" fill="#C0BBAE" font-family="'NewsGothicBT-Bold'" font-size="9">DETAILS</text>
</svg>
