<?xml version="1.0" encoding="utf-8"?>
<!-- Generator: Adobe Illustrator 16.0.0, SVG Export Plug-In . SVG Version: 6.00 Build 0)  -->
<!DOCTYPE svg PUBLIC "-//W3C//DTD SVG 1.1//EN" "http://www.w3.org/Graphics/SVG/1.1/DTD/svg11.dtd">
<svg version="1.1" id="Layer_1" xmlns="http://www.w3.org/2000/svg" xmlns:xlink="http://www.w3.org/1999/xlink" x="0px" y="0px"
	 width="252px" height="252px" viewBox="0 0 252 252" enable-background="new 0 0 252 252" xml:space="preserve">
<g>
	<path fill="#A1C6E9" d="M18.513,228.729c6.248,6.249,16.379,6.25,22.627,0.001c0,0,0,0,0-0.001l125.823-125.823l-22.627-22.628
		L18.513,206.102C12.264,212.35,12.264,222.48,18.513,228.729C18.512,228.729,18.513,228.729,18.513,228.729L18.513,228.729z"/>
	<path fill="#A1C6E9" d="M166.964,102.905l5.656,5.656l11.313-11.312l8.488,8.484l-2,9.943c-0.525,2.624,0.295,5.336,2.188,7.229
		l8.288,8.284l39.601-39.601l-8.28-8.284c-1.892-1.892-4.604-2.713-7.228-2.188l-9.945,2l-8.483-8.484l11.315-11.312l-25.379-25.393
		c-5.585-5.583-12.697-9.388-20.44-10.936l-58.832-11.768l-5.66,5.656l36.716,18.356c7.904,3.953,11.105,13.563,7.152,21.467
		c-0.769,1.538-1.78,2.941-2.996,4.157l-9.756,9.76l5.656,5.656L166.964,102.905z"/>
	<path fill="#A1C6E9" d="M166.964,102.905l-22.627-22.628L166.964,102.905z"/>
	<path fill="#A1C6E9" d="M60.657,99.785l0.004,0.004l16.96-16.96l-0.004-0.004L60.657,99.785z"/>
	<path fill="#A1C6E9" d="M83.28,60.197c-4.686-4.685-12.282-4.685-16.968,0L38.028,88.481c-4.604,4.767-4.472,12.364,0.295,16.968
		c4.65,4.491,12.023,4.491,16.673,0l5.664-5.66l16.96-16.96l5.66-5.664C87.965,72.479,87.965,64.883,83.28,60.197z"/>
</g>
<path fill="#FFD552" d="M189.788,125.733l8.289,8.284c1.562,1.561,4.094,1.561,5.655,0l39.601-39.601
	c1.561-1.562,1.561-4.094,0-5.656l-8.284-8.284c-2.833-2.845-6.905-4.078-10.841-3.284l-7.844,1.567l-4.147-4.14l8.487-8.484
	c1.563-1.562,1.563-4.094,0-5.656l-25.367-25.376c-6.137-6.15-13.963-10.339-22.484-12.036l-58.844-11.769
	c-1.308-0.257-2.658,0.154-3.6,1.096l-5.668,5.656c-1.56,1.564-1.556,4.098,0.008,5.657c0.302,0.301,0.65,0.552,1.032,0.743
	l36.708,18.36c5.925,2.969,8.322,10.179,5.354,16.104c-0.574,1.145-1.326,2.189-2.23,3.096l-9.764,9.756
	c-1.562,1.562-1.562,4.094,0,5.656l2.832,2.832l-28.976,28.977L83.276,82.805l2.836-2.836c6.248-6.249,6.246-16.38-0.004-22.628
	c-6.25-6.247-16.38-6.245-22.628,0.004l0,0l-28.28,28.284c-6.179,6.317-6.066,16.447,0.251,22.626
	c6.217,6.081,16.154,6.082,22.373,0.002l2.836-2.836l26.428,26.429l-71.404,71.424c-7.909,7.71-8.071,20.372-0.36,28.281
	c7.71,7.91,20.372,8.071,28.282,0.361c0.121-0.118,0.241-0.238,0.359-0.359l71.404-71.399l47.1,47.136
	c0.253,0.252,0.536,0.469,0.844,0.648l39.601,22.596c1.919,1.094,4.361,0.426,5.455-1.494c0.701-1.229,0.701-2.734,0-3.962
	l-22.596-39.601c-0.178-0.31-0.395-0.595-0.648-0.848l-47.135-47.096l28.971-28.976l2.828,2.828
	c1.563,1.563,4.094,1.564,5.658,0.003c0-0.001,0.002-0.002,0.002-0.003l8.488-8.484l4.141,4.144l-1.568,7.84
	C185.72,118.825,186.95,122.895,189.788,125.733L189.788,125.733z"/>
<path fill="#284E9F" d="M40.856,102.621c-3.123-3.124-3.123-8.188,0-11.312l28.28-28.284c3.124-3.125,8.189-3.126,11.314-0.002
	c3.125,3.123,3.125,8.188,0.002,11.313l-28.284,28.284C49.002,105.64,44.023,105.64,40.856,102.621z"/>
<rect x="77.19" y="88.664" transform="matrix(-0.7071 0.7071 -0.7071 -0.7071 221.3242 123.0295)" fill="#284E9F" width="15.986" height="37.375"/>
<polygon fill="#284E9F" points="179.093,189.905 194.169,216.329 167.737,201.257 121.024,154.501 132.329,143.193 "/>
<path fill="#284E9F" d="M38.293,225.905c-4.747,4.536-12.222,4.536-16.968,0c-4.687-4.687-4.688-12.284-0.001-16.971
	c0-0.001,0.001-0.001,0.001-0.001L144.337,85.937l16.968,16.968L38.293,225.905z"/>
<path fill="#284E9F" d="M186.749,94.425c-1.563-1.562-4.094-1.562-5.656,0l-8.473,8.48l-28.283-28.284l6.936-6.928
	c7.811-7.811,7.811-20.474,0-28.285c-1.52-1.521-3.275-2.786-5.199-3.748L114.32,19.785l0.22-0.22l56.732,11.348
	c6.973,1.389,13.377,4.816,18.4,9.848l22.552,22.548l-8.487,8.484c-1.563,1.562-1.563,4.094,0,5.656l8.483,8.488
	c0.943,0.941,2.293,1.35,3.601,1.092l9.947-2c1.307-0.259,2.656,0.151,3.6,1.092l5.457,5.46l-33.94,33.94l-5.456-5.456
	c-0.942-0.943-1.354-2.293-1.096-3.601l2-9.939c0.258-1.308-0.151-2.657-1.092-3.601L186.749,94.425z"/>
</svg>
