<?xml version="1.0" encoding="utf-8"?>
<!-- Generator: Adobe Illustrator 16.0.0, SVG Export Plug-In . SVG Version: 6.00 Build 0)  -->
<!DOCTYPE svg PUBLIC "-//W3C//DTD SVG 1.1//EN" "http://www.w3.org/Graphics/SVG/1.1/DTD/svg11.dtd">
<svg version="1.1" id="Capa_1" xmlns="http://www.w3.org/2000/svg" xmlns:xlink="http://www.w3.org/1999/xlink" x="0px" y="0px"
	 width="252px" height="252px" viewBox="0 0 252 252" enable-background="new 0 0 252 252" xml:space="preserve">
<g>
	<path fill="#C0BBAE" d="M35.266,237.996c0,0-0.224,5.633,5.279,5.633c6.846,0,63.522-0.074,63.522-0.074l0.093-52.051
		c0,0-0.896-8.58,7.433-8.58h26.356c9.849,0,9.242,8.58,9.242,8.58l-0.111,51.883c0,0,53.738,0,62.18,0
		c6.984,0,6.668-7.014,6.668-7.014v-95.959l-87.631-77.95l-93.032,77.95V237.996z"/>
	<path fill="#FDD5A7" d="M1.001,133.158c0,0,7.899,14.559,25.125,0l102.945-87.09l96.52,86.549c19.939,14.381,27.41,0,27.41,0
		L129.071,20.355L1.001,133.158z"/>
	<polygon fill="#F89C1C" points="223.249,45.863 198.423,45.863 198.525,75.968 223.249,96.943 	"/>
</g>
</svg>
