<?xml version="1.0" encoding="utf-8"?>
<!-- Generator: Adobe Illustrator 16.0.0, SVG Export Plug-In . SVG Version: 6.00 Build 0)  -->
<!DOCTYPE svg PUBLIC "-//W3C//DTD SVG 1.1//EN" "http://www.w3.org/Graphics/SVG/1.1/DTD/svg11.dtd">
<svg version="1.1" id="Layer_1" xmlns="http://www.w3.org/2000/svg" xmlns:xlink="http://www.w3.org/1999/xlink" x="0px" y="0px"
	 width="72px" height="72px" viewBox="0 0 72 72" enable-background="new 0 0 72 72" xml:space="preserve">
<g>
	<path fill="#FFF3F0" d="M56.776,67.981H20.993c-1.445,0-2.617-1.172-2.617-2.617V14.459c0-1.445,1.172-2.617,2.617-2.617h35.783
		c1.446,0,2.618,1.172,2.618,2.617v50.905C59.395,66.81,58.223,67.981,56.776,67.981L56.776,67.981z"/>
	<path fill="#D9E7EC" d="M56.776,11.843h-4.001c1.445,0,2.617,1.172,2.617,2.617v50.905c0,1.445-1.172,2.617-2.617,2.617h4.001
		c1.446,0,2.618-1.172,2.618-2.617V14.459C59.395,13.015,58.223,11.843,56.776,11.843z"/>
	<path fill="#FFF3F0" d="M49.793,63.199H14.01c-1.446,0-2.618-1.173-2.618-2.618V9.677c0-1.445,1.172-2.617,2.618-2.617h35.783
		c1.446,0,2.618,1.172,2.618,2.617v50.904C52.411,62.027,51.239,63.199,49.793,63.199z"/>
	<path fill="#D9E7EC" d="M49.793,7.06h-4.002c1.446,0,2.618,1.172,2.618,2.617v50.904c0,1.445-1.172,2.618-2.618,2.618h4.002
		c1.446,0,2.618-1.173,2.618-2.618V9.677C52.411,8.231,51.239,7.06,49.793,7.06z"/>
	<path fill="#010101" d="M59.395,45.074c0.552,0,1-0.447,1-1V14.459c0-1.995-1.623-3.617-3.618-3.617h-3.365V9.677
		c0-1.995-1.624-3.618-3.618-3.618h-5.122l-2.09-3.621c-0.52-0.899-1.451-1.438-2.489-1.438c-0.051,0-0.103,0.002-0.152,0.004
		c-0.913,0.047-1.729,0.511-2.235,1.27c-0.036,0.053-0.07,0.108-0.103,0.164l-2.09,3.621h-9.966h-8.273H14.01
		c-1.995,0-3.618,1.623-3.618,3.618V30.05c0,0.553,0.448,1,1,1s1-0.448,1-1V9.677c0-0.892,0.725-1.617,1.617-1.617h9.535h2.001
		h8.811l-2.104,3.646c-0.26,0.45-0.39,0.943-0.39,1.437s0.13,0.988,0.39,1.438c0.52,0.9,1.45,1.438,2.49,1.438h10.7
		c1.039,0,1.97-0.537,2.489-1.438c0.26-0.45,0.391-0.944,0.391-1.438s-0.131-0.987-0.391-1.437L45.826,8.06h3.967
		c0.891,0,1.617,0.725,1.617,1.617v50.904c0,0.892-0.726,1.616-1.617,1.616H14.01c-0.892,0-1.617-0.725-1.617-1.616V34.052
		c0-0.553-0.448-1-1-1s-1,0.448-1,1v26.529c0,1.995,1.623,3.617,3.618,3.617h3.366v1.166c0,1.995,1.623,3.617,3.618,3.617h35.783
		c1.994,0,3.618-1.622,3.618-3.617V48.076c0-0.553-0.448-1.001-1-1.001c-0.553,0-1.001,0.448-1.001,1.001v17.288
		c0,0.892-0.725,1.616-1.617,1.616H20.993c-0.892,0-1.617-0.725-1.617-1.616v-1.166h30.417c1.994,0,3.618-1.622,3.618-3.617V12.842
		h3.365c0.893,0,1.618,0.726,1.618,1.617v29.615C58.394,44.627,58.842,45.074,59.395,45.074L59.395,45.074z M46.318,13.139
		c0,0.202-0.074,0.361-0.12,0.441c-0.075,0.131-0.302,0.438-0.757,0.438h-10.7c-0.456,0-0.682-0.306-0.757-0.438
		c-0.046-0.08-0.12-0.239-0.12-0.441c0-0.13,0.031-0.278,0.12-0.433l5.351-9.267c0.227-0.394,0.604-0.437,0.757-0.437
		c0.151,0,0.529,0.043,0.756,0.437l5.351,9.267C46.287,12.861,46.318,13.008,46.318,13.139L46.318,13.139z"/>
	<path fill="#C0BBAE" d="M20.043,25.256h9.371c0.553,0,1-0.448,1-1c0-0.553-0.448-1-1-1h-9.371c-0.553,0-1,0.448-1,1
		C19.043,24.808,19.491,25.256,20.043,25.256z"/>
	<path fill="#C0BBAE" d="M20.043,31.215h23.45c0.553,0,0.999-0.448,0.999-1s-0.446-1-0.999-1h-23.45c-0.553,0-1,0.448-1,1
		S19.491,31.215,20.043,31.215z"/>
	<path fill="#C0BBAE" d="M20.043,37.174h23.45c0.553,0,0.999-0.447,0.999-1c0-0.552-0.446-1-0.999-1h-23.45c-0.553,0-1,0.448-1,1
		C19.043,36.727,19.491,37.174,20.043,37.174z"/>
	<path fill="#C0BBAE" d="M20.043,43.135h23.45c0.553,0,0.999-0.449,0.999-1.002s-0.446-0.999-0.999-0.999h-23.45
		c-0.553,0-1,0.446-1,0.999S19.491,43.135,20.043,43.135z"/>
	<path fill="#C0BBAE" d="M20.043,49.094h23.45c0.553,0,0.999-0.449,0.999-1.002c0-0.552-0.446-0.999-0.999-0.999h-23.45
		c-0.553,0-1,0.447-1,0.999C19.043,48.645,19.491,49.094,20.043,49.094z"/>
	<path fill="#C0BBAE" d="M43.493,55.007H37.12c-0.553,0-1.001,0.449-1.001,1.001c0,0.553,0.448,1,1.001,1h6.373
		c0.553,0,0.999-0.447,0.999-1C44.492,55.456,44.046,55.007,43.493,55.007z"/>
</g>
<g>
	<path fill="#8C857C" d="M36.052,3.496L24.771,23.031c-1.52,2.636,0.382,5.93,3.423,5.93h22.56c3.041,0,4.941-3.294,3.422-5.93
		L42.894,3.496C41.374,0.861,37.571,0.861,36.052,3.496L24.771,23.031c-1.52,2.636,0.382,5.93,3.423,5.93h22.56
		c3.041,0,4.941-3.294,3.422-5.93L42.894,3.496C41.374,0.861,37.571,0.861,36.052,3.496z"/>
	<path fill="#5D5E5E" d="M54.175,23.031L42.894,3.496c-1.52-2.635-5.322-2.635-6.842,0l-0.796,1.378l10.482,18.157
		c1.522,2.636-0.38,5.93-3.421,5.93h8.436C53.794,28.961,55.694,25.667,54.175,23.031L54.175,23.031z"/>
</g>
<path fill="none" stroke="#E0E1E0" stroke-miterlimit="10" d="M54.549,22.818L43.269,3.282c-1.521-2.634-5.322-2.634-6.843,0
	L35.63,4.659l0.001,0.001L25.145,22.818c-1.52,2.635,0.382,5.928,3.423,5.928h14.125h8.435
	C54.168,28.746,56.068,25.453,54.549,22.818z"/>
<g>
	<g>
		<path fill="#4C5661" d="M33.891,28.65"/>
	</g>
	<g>
		<polyline fill="none" points="44.467,28.65 44.467,28.65 44.467,28.65 		"/>
	</g>
	<g>
		<g>
			<path fill="#4C5661" d="M34.166,28.312"/>
		</g>
		<g>
			<path fill="#4C5661" d="M44.739,28.312"/>
		</g>
		<g>
			<g>
				<g>
					<g>
						<path fill="#FDD5A8" d="M39.66,14.001c-2.217,0-4.021-1.803-4.021-4.019s1.805-4.019,4.021-4.019
							c2.216,0,4.019,1.803,4.019,4.019S41.865,14.001,39.66,14.001z M39.66,6.266c-2.052,0-3.718,1.667-3.718,3.717
							c0,2.051,1.667,3.718,3.718,3.718l0,0c2.05,0,3.717-1.667,3.717-3.718C43.377,7.932,41.71,6.266,39.66,6.266z"/>
					</g>
					<g>
						<path fill="#FFD552" d="M39.66,13.361c-1.86,0-3.38-1.51-3.38-3.378c0-1.868,1.512-3.378,3.38-3.378
							c1.857,0,3.377,1.51,3.377,3.378C43.037,11.851,41.518,13.361,39.66,13.361z"/>
					</g>
					<g>
						<rect x="34.019" y="21.078" fill="#4C5661" width="0.293" height="7.233"/>
					</g>
					<g>
						<path fill="#FDD5A8" d="M47.202,28.312h-0.293v-9.833c0-2.471-2.013-4.477-4.477-4.477h-5.95
							c-2.473,0-4.478,2.015-4.478,4.477v9.833h-0.292v-9.833c0-2.637,2.141-4.778,4.78-4.778h5.94c2.637,0,4.78,2.142,4.78,4.778
							v9.833H47.202z"/>
					</g>
					<g>
						<path fill="#E0E0DF" d="M46.562,28.312v-9.833c0-2.279-1.857-4.138-4.138-4.138h-5.941c-2.279,0-4.139,1.859-4.139,4.138
							v9.833H46.562z"/>
					</g>
					<g>
						<rect x="44.593" y="21.078" fill="#FDD5A8" width="0.295" height="7.233"/>
					</g>
				</g>
				<g>
					<g>
						<polygon fill="#2A4F9E" points="39.66,13.847 37.911,13.847 39.029,15.942 39.66,15.942 40.281,15.942 41.399,13.847 						
							"/>
					</g>
					<g>
						<polygon fill="#2A4F9E" points="39.029,15.942 37.911,22.846 39.558,24.788 41.233,22.846 40.281,15.942 						"/>
					</g>
					<g>
						<path fill="#FDD5A8" d="M40.373,16.089h-1.438l-1.271-2.38h3.982L40.373,16.089z M39.118,15.797h1.08l0.953-1.795h-2.992
							L39.118,15.797z"/>
					</g>
					<g>
						<path fill="#FDD5A8" d="M39.558,25.015l-1.803-2.123l1.144-7.096h1.512L41.39,22.9L39.558,25.015z M38.065,22.801l1.492,1.758
							l1.52-1.758l-0.932-6.711h-0.99L38.065,22.801z"/>
					</g>
				</g>
			</g>
		</g>
	</g>
	<g>
		<g>
			<path fill="#4C5661" d="M34.166,28.312"/>
		</g>
		<g>
			<path fill="#4C5661" d="M44.739,28.312"/>
		</g>
		<g>
			<g>
				<g>
					<g>
						<rect x="34.019" y="21.078" fill="#FDD5A8" width="0.293" height="7.233"/>
					</g>
					<g>
						<path fill="#E0E1E0" d="M46.562,28.312v-9.833c0-0.1,0-0.201-0.008-0.292c-0.011-0.156-0.027-0.303-0.056-0.439
							c-0.156-0.87-0.586-1.657-1.227-2.272c-0.055-0.044-0.099-0.091-0.154-0.136c-0.587-0.495-1.292-0.825-2.044-0.943
							c-0.146-0.027-0.302-0.036-0.458-0.045"/>
					</g>
					<g>
						<rect x="44.593" y="21.078" fill="#FDD5A8" width="0.295" height="7.233"/>
					</g>
				</g>
			</g>
		</g>
	</g>
</g>
</svg>
