<?xml version="1.0" encoding="utf-8"?>
<!-- Generator: Adobe Illustrator 16.0.0, SVG Export Plug-In . SVG Version: 6.00 Build 0)  -->
<!DOCTYPE svg PUBLIC "-//W3C//DTD SVG 1.1//EN" "http://www.w3.org/Graphics/SVG/1.1/DTD/svg11.dtd">
<svg version="1.1" id="Layer_1" xmlns="http://www.w3.org/2000/svg" xmlns:xlink="http://www.w3.org/1999/xlink" x="0px" y="0px"
	 width="252px" height="252px" viewBox="0 0 252 252" enable-background="new 0 0 252 252" xml:space="preserve">
<g>
	<g>
		<path fill="#4B5560" d="M33.1,254"/>
	</g>
	<g>
		<polyline fill="none" points="148.6,254 148.6,254 148.6,254 		"/>
	</g>
	<g>
		<g>
			<path fill="#FDD5A8" d="M244.7,63.3L217.1,52.4L229,25.3l-11.6-11.6L190.3,25.5L179.4-2h-13.9l-10.8,27.6L132,15.7l6,6.1l18.5,8
				l11.2-28.6h9.6l11.3,28.6l28.2-12.3l8.5,8.5L213,54.2l28.6,11.3v9.6L213,86.3l12.3,28.2l-6.8,6.8L190.2,109l-7.7,19.7l0.1,8.6
				l9.4-24l27.2,11.8l8.399-8.5l1.4-1.4L217.1,88L244.7,77.2V63.3z"/>
		</g>
	</g>
	<g>
		<path fill="#FBF5B0" d="M237.7,72.5v-4.4l-29.9-11.8l12.8-29.4L215.7,22l-20.4,9l-8.899,3.9L174.6,5H170.2l-11.7,29.8l-21.7-9.4
			c4.5,7.4,6.9,15.9,6.9,24.7c0,1.3-0.101,2.5-0.2,3.9c-0.1,0.5-0.1,1-0.2,1.5c-0.7,6.3-2.7,12.4-5.8,17.9
			c-2.8,4.9-6.5,8.9-10.5,12.9l-0.7,0.7c3.5,0.3,7,0.3,10.5,1c3.101,0.6,6.3,1.5,9.2,2.6c6,2.3,11.6,5.6,16.5,9.8
			c0.8,0.6,1.4,1.3,2.1,1.9c7,6.6,12,14.6,14.9,23.5c0,0,8.5-21.8,8.6-21.8l8.9,3.9l20.5,8.9l3.1-3.1l-12.8-29.4L237.7,72.5z
			 M173.3,98.8c-16.2,0-29.399-13.2-29.399-29.4C143.9,53.2,157.1,40,173.3,40s29.4,13.2,29.4,29.4
			C202.7,85.6,189.5,98.8,173.3,98.8z"/>
	</g>
	<g>
		<g>
			<path fill="#4B5560" d="M36.1,250.3"/>
		</g>
		<g>
			<path fill="#4B5560" d="M151.6,250.3"/>
		</g>
		<g>
			<g>
				<g>
					<g>
						<path fill="#FDD5A8" d="M96.1,94c-24.2,0-43.9-19.7-43.9-43.9c0-24.2,19.7-43.9,43.9-43.9c24.2,0,43.9,19.7,43.9,43.9
							C140,74.3,120.2,94,96.1,94z M96.1,9.5c-22.4,0-40.6,18.2-40.6,40.6s18.2,40.6,40.6,40.6l0,0c22.4,0,40.6-18.2,40.6-40.6
							S118.5,9.5,96.1,9.5z"/>
					</g>
					<g>
						<path fill="#FFD552" d="M96.1,87c-20.3,0-36.9-16.5-36.9-36.9s16.5-36.9,36.9-36.9c20.3,0,36.9,16.5,36.9,36.9
							S116.4,87,96.1,87z"/>
					</g>
					<g>
						<rect x="34.5" y="171.3" fill="#4B5560" width="3.2" height="79"/>
					</g>
					<g>
						<path fill="#FDD5A8" d="M178.5,250.3h-3.2V142.9c0-27-22-48.9-48.9-48.9h-65c-27,0-48.9,22-48.9,48.9V250.3H9.3V142.9
							c0-28.8,23.4-52.2,52.2-52.2h64.9c28.8,0,52.2,23.4,52.2,52.2V250.3H178.5z"/>
					</g>
					<g>
						<path fill="#E0E0DF" d="M171.5,250.3V142.9c0-24.9-20.3-45.2-45.2-45.2H61.4c-24.9,0-45.2,20.3-45.2,45.2V250.3H171.5z"/>
					</g>
					<g>
						<rect x="150" y="171.3" fill="#FDD5A8" width="3.2" height="79"/>
					</g>
				</g>
				<g>
					<g>
						<polygon fill="#284E9E" points="96.1,92.3 77,92.3 89.2,115.2 96.1,115.2 102.9,115.2 115.1,92.3 						"/>
					</g>
					<g>
						<polygon fill="#284E9E" points="89.2,115.2 77,190.6 95,211.8 113.3,190.6 102.9,115.2 						"/>
					</g>
					<g>
						<path fill="#FDD5A8" d="M103.9,116.8H88.2l-13.9-26h43.5L103.9,116.8z M90.2,113.6H102L112.4,94H79.7L90.2,113.6z"/>
					</g>
					<g>
						<path fill="#FDD5A8" d="M95,214.3l-19.7-23.2l12.5-77.5h16.5l10.7,77.6L95,214.3z M78.7,190.1L95,209.3l16.6-19.2l-10.2-73.3
							H90.6L78.7,190.1z"/>
					</g>
				</g>
			</g>
		</g>
	</g>
	<g>
		<g>
			<path fill="#4B5560" d="M36.1,250.3"/>
		</g>
		<g>
			<path fill="#4B5560" d="M151.6,250.3"/>
		</g>
		<g>
			<g>
				<g>
					<g>
						<rect x="34.5" y="171.3" fill="#FDD5A8" width="3.2" height="79"/>
					</g>
					<g>
						<path fill="#E0E1E0" d="M171.5,250.3V142.9c0-1.101,0-2.2-0.1-3.2c-0.101-1.7-0.301-3.3-0.601-4.8
							c-1.7-9.5-6.399-18.101-13.399-24.8c-0.601-0.5-1.101-1-1.7-1.5c-6.4-5.4-14.101-9-22.3-10.3c-1.601-0.3-3.301-0.4-5-0.5"/>
					</g>
					<g>
						<rect x="150" y="171.3" fill="#FDD5A8" width="3.2" height="79"/>
					</g>
				</g>
			</g>
		</g>
	</g>
	<g>
		<path fill="#FDD5A8" d="M173,94.4c-13.9,0-25.1-11.3-25.1-25.1c0-13.8,11.3-25.1,25.1-25.1s25.1,11.3,25.1,25.1
			C198.1,83.1,186.8,94.4,173,94.4z M173,47.4c-12.1,0-21.9,9.8-21.9,21.9c0,12.1,9.801,21.9,21.9,21.9s21.9-9.8,21.9-21.9
			C194.9,57.2,185,47.4,173,47.4z"/>
	</g>
</g>
</svg>
