<?xml version="1.0" encoding="utf-8"?>
<!-- Generator: Adobe Illustrator 16.0.0, SVG Export Plug-In . SVG Version: 6.00 Build 0)  -->
<!DOCTYPE svg PUBLIC "-//W3C//DTD SVG 1.1//EN" "http://www.w3.org/Graphics/SVG/1.1/DTD/svg11.dtd">
<svg version="1.1" id="Layer_1" xmlns="http://www.w3.org/2000/svg" xmlns:xlink="http://www.w3.org/1999/xlink" x="0px" y="0px"
	 width="72px" height="72px" viewBox="0 0 72 72" enable-background="new 0 0 72 72" xml:space="preserve">
<g>
	<g>
		<rect x="27.516" y="7.632" fill="#E0E1E0" width="32.153" height="54.765"/>
	</g>
	<g>
		<path fill="#FED6A9" d="M12.809,59.89H6.414V9.243h6.395V59.89z M7.284,59.046h4.654V10.113H7.284V59.046z"/>
	</g>
	<g>
		<rect x="8.281" y="11.11" fill="#F69070" width="2.66" height="46.915"/>
	</g>
	<g>
		<g>
			<path fill="#FED6A9" d="M9.611,68.307L6.414,59.89v-0.869h6.395v0.869L9.611,68.307z M7.462,59.89l2.149,5.884l2.148-5.884H7.462
				z"/>
		</g>
	</g>
	<g>
		<rect x="8.434" y="63.396" fill="#FED6A9" width="2.329" height="0.869"/>
	</g>
	<g>
		<rect x="9.15" y="9.678" fill="#FFFFFF" width="0.87" height="49.802"/>
	</g>
	<g>
		<path fill="#FED6A9" d="M61.947,68.741H25.292c-2.047,0-3.708-1.664-3.708-3.71V9.447c0-2.047,1.662-3.709,3.708-3.709h36.681
			c2.046,0,3.71,1.663,3.71,3.709v55.584C65.654,67.077,63.993,68.741,61.947,68.741z M25.292,6.608c-1.562,0-2.84,1.279-2.84,2.839
			v55.584c0,1.561,1.279,2.839,2.84,2.839h36.681c1.561,0,2.841-1.278,2.841-2.839V9.447c0-1.56-1.28-2.839-2.841-2.839H25.292z"/>
	</g>
	<g>
		<path fill="#FED6A9" d="M54.427,6.608H32.837V3.257h21.589V6.608z M33.682,5.764h19.875V4.127H33.682V5.764z"/>
	</g>
	<g>
		<path fill="#FED6A9" d="M51.612,11.826H35.625l-3.069-6.088h22.128L51.612,11.826z M36.162,10.983h14.939l2.2-4.349H33.963
			L36.162,10.983z"/>
	</g>
	<g>
		<path fill="#FED6A9" d="M61.538,64.265h-35.89v-58.5h35.89V64.265L61.538,64.265z M26.519,63.396h34.174V6.608H26.519V63.396z"/>
	</g>
	<g>
		<rect x="31.583" y="19.551" fill="#FFFFFF" width="6.087" height="6.088"/>
	</g>
	<g>
		<rect x="31.583" y="34.131" fill="#FFFFFF" width="6.087" height="6.087"/>
	</g>
	<g>
		<rect x="31.583" y="48.735" fill="#FFFFFF" width="6.087" height="6.09"/>
	</g>
	<g>
		<path fill="#5D5E5E" d="M38.08,26.048h-6.957v-6.932h6.957V26.048z M32.019,25.205h5.217v-5.219h-5.217V25.205L32.019,25.205z"/>
	</g>
	<g>
		<path fill="#5D5E5E" d="M38.08,40.653h-6.957v-6.958h6.957V40.653z M32.019,39.784h5.217v-5.218h-5.217V39.784L32.019,39.784z"/>
	</g>
	<g>
		<path fill="#5D5E5E" d="M38.08,55.26h-6.957v-6.956h6.957V55.26z M32.019,54.391h5.217v-5.218h-5.217V54.391L32.019,54.391z"/>
	</g>
	<g>
		<polygon fill="#FED6A9" points="34.909,24.462 32.914,21.981 33.579,21.444 35.012,23.234 39.284,19.551 39.846,20.19 		"/>
	</g>
	<g>
		<polygon fill="#FED6A9" points="34.909,38.94 32.914,36.458 33.579,35.922 35.012,37.711 39.284,34.03 39.846,34.669 		"/>
	</g>
	<g>
		<polygon fill="#FED6A9" points="34.909,53.418 32.914,50.938 33.579,50.399 35.012,52.19 39.284,48.509 39.846,49.146 		"/>
	</g>
	<g>
		<rect x="43.632" y="20.013" fill="#996836" width="12.686" height="0.868"/>
	</g>
	<g>
		<path fill="#996836" d="M51.355,24.846h-0.818v-0.87h0.818V24.846z M49.668,24.846H48.8v-0.87h0.868V24.846z M47.928,24.846
			h-0.869v-0.87h0.869V24.846z M46.216,24.846h-0.869v-0.87h0.869V24.846z M44.476,24.846h-0.869v-0.87h0.869V24.846z"/>
	</g>
	<g>
		<rect x="43.632" y="35.206" fill="#996836" width="12.686" height="0.869"/>
	</g>
	<g>
		<path fill="#996836" d="M51.355,40.066h-0.818v-0.871h0.818V40.066z M49.668,40.066H48.8v-0.871h0.868V40.066z M47.928,40.066
			h-0.869v-0.871h0.869V40.066z M46.216,40.066h-0.869v-0.871h0.869V40.066z M44.476,40.066h-0.869v-0.871h0.869V40.066z"/>
	</g>
	<g>
		<rect x="43.632" y="49.274" fill="#996836" width="12.686" height="0.869"/>
	</g>
	<g>
		<path fill="#996836" d="M51.355,54.109h-0.818V53.24h0.818V54.109z M49.668,54.109H48.8V53.24h0.868V54.109z M47.928,54.109
			h-0.869V53.24h0.869V54.109z M46.216,54.109h-0.869V53.24h0.869V54.109z M44.476,54.109h-0.869V53.24h0.869V54.109z"/>
	</g>
</g>
</svg>
