<?xml version="1.0" encoding="utf-8"?>
<!-- Generator: Adobe Illustrator 16.0.0, SVG Export Plug-In . SVG Version: 6.00 Build 0)  -->
<!DOCTYPE svg PUBLIC "-//W3C//DTD SVG 1.1//EN" "http://www.w3.org/Graphics/SVG/1.1/DTD/svg11.dtd">
<svg version="1.1" id="Layer_1" xmlns="http://www.w3.org/2000/svg" xmlns:xlink="http://www.w3.org/1999/xlink" x="0px" y="0px"
	 width="32px" height="32px" viewBox="0 0 32 32" enable-background="new 0 0 32 32" xml:space="preserve">
<g>
	<g>
		<path fill="#FDD5A8" d="M26.881,5.146c-4.813,0-10.116-3.858-10.165-3.895l-0.711-0.527l-0.71,0.527
			C15.245,1.288,9.942,5.146,5.128,5.146h-1.2v15.714l0.012,0.073c0.012,0.086,0.307,2.168,1.936,4.507
			c1.469,2.12,4.384,4.912,9.859,6.16l0.27,0.063l0.27-0.063c5.475-1.248,8.39-4.04,9.858-6.16c1.63-2.339,1.923-4.421,1.936-4.507
			l0.012-0.073V5.146H26.881z M26.367,22.55c-0.944,2.338-3.54,6.345-10.362,7.898c-6.823-1.554-9.406-5.572-10.361-7.898
			c-0.355-0.858-0.527-1.776-0.527-2.707V6.345c5.291,0,10.889-4.127,10.889-4.127s5.598,4.127,10.876,4.127v13.484
			C26.881,20.762,26.71,21.681,26.367,22.55z"/>
	</g>
	<g>
		<path fill="#F99D1C" d="M16.005,31.857l-0.306-0.073c-5.536-1.262-8.476-4.078-9.97-6.235c-0.858-1.236-1.347-2.448-1.617-3.244
			c-0.245-0.735-0.368-1.507-0.368-2.302V4.961h1.384c2.45,0,5.046-1.041,6.785-1.911c1.899-0.955,3.222-1.911,3.27-1.947
			l0.821-0.601l0.82,0.601c0.05,0.037,1.372,0.993,3.27,1.947c1.74,0.87,4.337,1.911,6.786,1.911h1.384l-0.012,15.125
			c0,0.846-0.135,1.667-0.417,2.449c-0.368,1.055-0.894,2.071-1.556,3.026c-1.494,2.144-4.435,4.973-9.97,6.234L16.005,31.857z
			 M4.1,5.329v14.685c0,0.76,0.123,1.495,0.342,2.192c0.258,0.771,0.735,1.947,1.568,3.148c1.457,2.095,4.335,4.85,9.761,6.087
			l0.221,0.049l0.232-0.049c5.426-1.237,8.306-3.992,9.762-6.087c0.648-0.932,1.151-1.912,1.519-2.939
			c0.258-0.734,0.393-1.52,0.393-2.328l0.012-14.758h-1.017c-4.813,0-10.055-3.772-10.275-3.931l-0.613-0.454l-0.601,0.441
			C15.184,1.544,9.942,5.317,5.128,5.317H4.1V5.329z M16.005,30.633l-0.037-0.012c-6.932-1.58-9.541-5.695-10.484-8.011
			c-0.355-0.869-0.539-1.813-0.539-2.781V6.162h0.184c2.695,0,5.475-1.115,7.336-2.046c2.021-1.016,3.43-2.045,3.442-2.045
			l0.11-0.073l0.11,0.073c0.011,0.012,1.42,1.041,3.442,2.045c1.86,0.931,4.642,2.046,7.335,2.046h0.185v13.667
			c0,0.969-0.185,1.899-0.54,2.781c-0.941,2.315-3.55,6.431-10.483,8.011L16.005,30.633z M5.3,6.529v13.313
			c0,0.919,0.171,1.813,0.514,2.645c2.119,5.219,7.275,7.117,10.19,7.778c2.915-0.674,8.071-2.572,10.19-7.778
			c0.343-0.832,0.502-1.714,0.502-2.645V6.529c-2.707-0.049-5.463-1.151-7.324-2.082c-1.716-0.87-3-1.752-3.368-2.009
			c-0.368,0.257-1.654,1.139-3.38,2.009C10.775,5.366,8.006,6.48,5.3,6.529z"/>
	</g>
	<g>
		<g>
			<path fill="#F99D1C" d="M16.311,29.653l-0.086-0.343c0.11-0.024,0.234-0.062,0.343-0.086l0.098,0.343
				C16.543,29.592,16.421,29.628,16.311,29.653z M15.723,29.628c-0.123-0.023-0.233-0.061-0.355-0.085l0.086-0.343
				c0.11,0.024,0.233,0.061,0.343,0.086L15.723,29.628z M17.095,29.445l-0.099-0.344c0.11-0.036,0.233-0.072,0.344-0.098l0.11,0.343
				C17.327,29.383,17.205,29.407,17.095,29.445z M14.902,29.433c-0.122-0.036-0.232-0.073-0.343-0.111l0.11-0.341
				c0.11,0.035,0.221,0.072,0.344,0.109L14.902,29.433z M17.793,29.225l-0.11-0.343c0.11-0.037,0.22-0.074,0.33-0.123l0.124,0.343
				C18.025,29.151,17.902,29.188,17.793,29.225z M14.143,29.2c-0.11-0.038-0.232-0.086-0.343-0.124l0.123-0.33
				c0.11,0.038,0.22,0.086,0.331,0.123L14.143,29.2z M18.503,28.967l-0.135-0.33c0.109-0.05,0.22-0.086,0.331-0.136l0.134,0.331
				C18.724,28.882,18.613,28.917,18.503,28.967z M13.383,28.917c-0.11-0.048-0.22-0.096-0.331-0.146l0.147-0.33
				c0.11,0.049,0.22,0.099,0.331,0.135L13.383,28.917z M19.177,28.674l-0.146-0.332c0.11-0.048,0.22-0.098,0.317-0.146l0.147,0.331
				C19.397,28.575,19.287,28.625,19.177,28.674z M12.686,28.611c-0.11-0.05-0.221-0.097-0.331-0.159l0.159-0.317
				c0.11,0.049,0.208,0.097,0.318,0.146L12.686,28.611z M19.838,28.367l-0.159-0.318c0.11-0.05,0.209-0.11,0.318-0.159l0.171,0.319
				C20.059,28.256,19.948,28.306,19.838,28.367z M11.987,28.281c-0.11-0.061-0.22-0.11-0.318-0.171l0.171-0.319
				c0.098,0.062,0.208,0.111,0.319,0.173L11.987,28.281z M20.488,28.024l-0.172-0.318c0.097-0.063,0.207-0.123,0.306-0.172
				l0.184,0.306C20.695,27.902,20.598,27.964,20.488,28.024z M11.326,27.902c-0.11-0.063-0.208-0.123-0.306-0.184l0.196-0.308
				c0.098,0.063,0.196,0.123,0.306,0.185L11.326,27.902z M21.112,27.644l-0.196-0.306c0.098-0.062,0.196-0.122,0.294-0.194
				l0.196,0.292C21.32,27.521,21.223,27.583,21.112,27.644z M10.665,27.51c-0.098-0.074-0.196-0.135-0.307-0.208l0.208-0.294
				c0.098,0.072,0.196,0.136,0.294,0.196L10.665,27.51z M21.725,27.239l-0.209-0.293c0.099-0.073,0.197-0.136,0.282-0.208
				l0.221,0.281C21.921,27.105,21.823,27.179,21.725,27.239z M10.077,27.094c-0.098-0.074-0.196-0.147-0.294-0.221l0.22-0.282
				c0.099,0.073,0.185,0.147,0.282,0.22L10.077,27.094z M22.3,26.8l-0.22-0.282c0.099-0.073,0.183-0.146,0.269-0.22l0.233,0.269
				C22.496,26.652,22.398,26.725,22.3,26.8z M9.452,26.591c-0.098-0.073-0.183-0.158-0.27-0.245l0.246-0.269
				c0.086,0.072,0.172,0.158,0.269,0.231L9.452,26.591z M22.863,26.334l-0.245-0.27c0.086-0.074,0.172-0.16,0.257-0.245l0.245,0.258
				C23.035,26.162,22.949,26.248,22.863,26.334z M8.901,26.102c-0.085-0.087-0.172-0.172-0.257-0.258l0.257-0.257
				c0.086,0.086,0.171,0.172,0.257,0.245L8.901,26.102z M23.39,25.819l-0.257-0.257c0.086-0.086,0.159-0.172,0.244-0.258
				l0.271,0.244C23.55,25.647,23.476,25.733,23.39,25.819z M8.386,25.574c-0.085-0.086-0.159-0.184-0.245-0.27l0.27-0.232
				c0.073,0.086,0.159,0.171,0.232,0.27L8.386,25.574z M23.88,25.281l-0.27-0.233c0.074-0.086,0.147-0.184,0.232-0.27l0.282,0.221
				C24.039,25.097,23.953,25.194,23.88,25.281z M7.909,25.023c-0.073-0.098-0.146-0.196-0.22-0.281l0.282-0.221
				c0.074,0.097,0.147,0.185,0.22,0.281L7.909,25.023z M24.333,24.717l-0.281-0.22c0.073-0.099,0.146-0.185,0.209-0.282l0.292,0.208
				C24.48,24.521,24.406,24.618,24.333,24.717z M7.468,24.448l-0.037-0.05c-0.061-0.086-0.123-0.171-0.171-0.257l0.306-0.195
				c0.049,0.086,0.11,0.17,0.172,0.245l0.024,0.036L7.468,24.448z M24.762,24.116l-0.307-0.194c0.063-0.099,0.136-0.196,0.196-0.295
				l0.306,0.184C24.896,23.908,24.823,24.019,24.762,24.116z M7.064,23.836c-0.062-0.11-0.123-0.209-0.184-0.318l0.318-0.185
				c0.062,0.099,0.123,0.197,0.184,0.307L7.064,23.836z M25.142,23.492l-0.318-0.171c0.061-0.11,0.11-0.208,0.172-0.306l0.317,0.171
				C25.264,23.284,25.202,23.382,25.142,23.492z M6.708,23.197c-0.061-0.109-0.11-0.22-0.159-0.33l0.319-0.158
				c0.048,0.098,0.097,0.208,0.159,0.317L6.708,23.197z M25.484,22.843l-0.331-0.158c0.049-0.11,0.099-0.221,0.147-0.319l0.33,0.147
				C25.583,22.622,25.532,22.732,25.484,22.843z M6.39,22.536c-0.049-0.121-0.098-0.231-0.146-0.342l0.331-0.135
				c0.036,0.11,0.085,0.208,0.134,0.331L6.39,22.536z M25.778,22.17l-0.33-0.136c0.049-0.109,0.084-0.22,0.122-0.33l0.343,0.122
				C25.864,21.938,25.827,22.06,25.778,22.17z M6.109,21.851c-0.049-0.122-0.086-0.245-0.123-0.342l0.342-0.11
				c0.038,0.098,0.074,0.22,0.111,0.33L6.109,21.851z M26.023,21.484l-0.343-0.11c0.036-0.123,0.073-0.245,0.098-0.344l0.344,0.085
				C26.098,21.239,26.06,21.36,26.023,21.484z M5.901,21.153c-0.037-0.123-0.062-0.245-0.086-0.355l0.355-0.073
				c0.025,0.11,0.049,0.22,0.086,0.344L5.901,21.153z M26.208,20.762l-0.355-0.074c0-0.023,0.012-0.062,0.012-0.073v-0.245h0.354
				v0.295C26.219,20.688,26.219,20.725,26.208,20.762z M6.145,20.394H5.79v-0.355h0.355V20.394z M26.231,20.014h-0.355v-0.354h0.355
				V20.014z M6.145,19.683H5.79v-0.354h0.355V19.683z M26.231,19.292h-0.355v-0.355h0.355V19.292z M6.145,18.961H5.79v-0.355h0.355
				V18.961z M26.231,18.569h-0.355v-0.355h0.355V18.569z M6.145,18.237H5.79v-0.354h0.355V18.237z M26.231,17.859h-0.355v-0.355
				h0.355V17.859z M6.145,17.516H5.79V17.16h0.355V17.516z M26.231,17.136h-0.355v-0.354h0.355V17.136z M6.145,16.793H5.79v-0.355
				h0.355V16.793z M26.231,16.413h-0.355v-0.354h0.355V16.413z M6.145,16.083H5.79v-0.355h0.355V16.083z M26.231,15.69h-0.355
				v-0.355h0.355V15.69z M6.145,15.359H5.79v-0.354h0.355V15.359z M26.231,14.968h-0.355v-0.355h0.355V14.968z M6.145,14.637H5.79
				v-0.355h0.355V14.637z M26.231,14.257h-0.355v-0.355h0.355V14.257z M6.145,13.915H5.79v-0.355h0.355V13.915z M26.231,13.535
				h-0.355V13.18h0.355V13.535z M6.145,13.192H5.79v-0.354h0.355V13.192z M26.231,12.813h-0.355v-0.355h0.355V12.813z M6.145,12.482
				H5.79v-0.355h0.355V12.482z M26.231,12.089h-0.355v-0.355h0.355V12.089z M6.145,11.759H5.79v-0.355h0.355V11.759z M26.231,11.367
				h-0.355v-0.355h0.355V11.367z M6.145,11.037H5.79v-0.355h0.355V11.037z M26.231,10.694h-0.355v-0.355h0.355V10.694z
				 M6.145,10.314H5.79V9.958h0.355V10.314z M26.231,10.02h-0.355V9.665h0.355V10.02z M6.145,9.591H5.79V9.235h0.355V9.591z
				 M26.231,9.334h-0.355V8.979h0.355V9.334z M6.145,8.881H5.79V8.526h0.355V8.881z M26.231,8.66h-0.355V8.305h0.355V8.66z
				 M6.145,8.158H5.79V7.803h0.355V8.158z M26.231,7.986h-0.355V7.632h0.355V7.986z M6.145,7.374H5.79V6.97l0.355-0.012V7.374z
				 M26.219,7.313c-0.121,0-0.245,0-0.366-0.012l0.012-0.355c0.122,0,0.233,0.012,0.354,0.012V7.313z M6.464,7.301L6.427,6.946
				C6.549,6.933,6.66,6.921,6.782,6.909l0.037,0.355C6.708,7.276,6.586,7.289,6.464,7.301z M25.398,7.276
				c-0.121-0.013-0.245-0.037-0.366-0.049l0.049-0.355c0.121,0.012,0.231,0.036,0.355,0.049L25.398,7.276z M7.137,7.215L7.088,6.86
				c0.11-0.012,0.233-0.037,0.355-0.062l0.061,0.355C7.37,7.178,7.26,7.19,7.137,7.215z M24.64,7.178
				c-0.122-0.024-0.245-0.048-0.355-0.073l0.074-0.355c0.109,0.024,0.232,0.048,0.354,0.061L24.64,7.178z M7.86,7.081L7.787,6.725
				c0.11-0.024,0.232-0.049,0.343-0.073l0.074,0.355C8.093,7.031,7.97,7.056,7.86,7.081z M23.917,7.044
				c-0.123-0.025-0.232-0.049-0.355-0.086l0.086-0.355c0.11,0.025,0.232,0.062,0.343,0.086L23.917,7.044z M8.57,6.921L8.484,6.566
				c0.11-0.024,0.233-0.062,0.343-0.086l0.099,0.343C8.803,6.86,8.681,6.897,8.57,6.921z M23.146,6.86
				c-0.124-0.037-0.233-0.062-0.355-0.098l0.099-0.342c0.11,0.036,0.231,0.061,0.342,0.098L23.146,6.86z M9.269,6.738L9.171,6.382
				c0.11-0.037,0.232-0.073,0.343-0.11l0.11,0.343C9.501,6.665,9.379,6.701,9.269,6.738z M22.424,6.64
				c-0.112-0.037-0.234-0.074-0.344-0.11l0.109-0.343c0.11,0.036,0.221,0.073,0.344,0.11L22.424,6.64z M9.954,6.517l-0.11-0.343
				c0.11-0.037,0.221-0.073,0.343-0.122l0.122,0.343C10.188,6.432,10.077,6.48,9.954,6.517z M21.688,6.382
				c-0.109-0.037-0.232-0.086-0.344-0.123l0.124-0.343c0.11,0.038,0.22,0.086,0.33,0.123L21.688,6.382z M10.64,6.272l-0.122-0.343
				c0.11-0.037,0.22-0.086,0.331-0.135l0.135,0.343C10.873,6.187,10.763,6.223,10.64,6.272z M21.003,6.137
				c-0.11-0.049-0.222-0.085-0.333-0.135l0.136-0.331c0.11,0.049,0.22,0.085,0.331,0.135L21.003,6.137z M11.314,6.002l-0.135-0.331
				c0.11-0.049,0.221-0.098,0.331-0.135l0.147,0.331C11.546,5.905,11.424,5.954,11.314,6.002z M20.327,5.855
				c-0.109-0.049-0.22-0.098-0.33-0.147l0.147-0.331c0.109,0.049,0.22,0.098,0.33,0.147L20.327,5.855z M12.024,5.708l-0.147-0.331
				c0.11-0.049,0.22-0.098,0.331-0.147l0.147,0.331C12.245,5.611,12.134,5.66,12.024,5.708z M19.667,5.549
				c-0.11-0.049-0.221-0.098-0.331-0.159l0.159-0.318c0.11,0.049,0.208,0.098,0.318,0.159L19.667,5.549z M12.709,5.378L12.551,5.06
				c0.111-0.049,0.208-0.111,0.319-0.159l0.159,0.318C12.918,5.268,12.808,5.329,12.709,5.378z M19.018,5.244
				c-0.11-0.049-0.221-0.11-0.318-0.16l0.172-0.318c0.11,0.049,0.207,0.11,0.317,0.159L19.018,5.244z M13.42,5.011L13.25,4.692
				c0.11-0.061,0.208-0.11,0.318-0.171l0.171,0.318C13.628,4.901,13.531,4.961,13.42,5.011z M18.296,4.876
				c-0.111-0.062-0.222-0.11-0.32-0.172l0.173-0.318c0.098,0.062,0.208,0.11,0.318,0.172L18.296,4.876z M14.131,4.618L13.959,4.3
				c0.11-0.061,0.208-0.123,0.318-0.172l0.184,0.319C14.351,4.496,14.241,4.558,14.131,4.618z M17.657,4.496
				c-0.109-0.061-0.207-0.123-0.317-0.184l0.185-0.307c0.098,0.062,0.208,0.123,0.306,0.185L17.657,4.496z M14.816,4.215
				l-0.183-0.307c0.11-0.061,0.208-0.123,0.306-0.184l0.184,0.306C15.024,4.092,14.927,4.153,14.816,4.215z M17.046,4.128
				c-0.11-0.061-0.208-0.135-0.307-0.184l0.196-0.306c0.099,0.061,0.196,0.123,0.306,0.184L17.046,4.128z M16.421,3.773
				c-0.11-0.073-0.208-0.134-0.306-0.195l0.195-0.306c0.086,0.061,0.197,0.121,0.295,0.195L16.421,3.773z M15.515,3.798
				l-0.196-0.306c0.11-0.074,0.208-0.135,0.293-0.196l0.208,0.294C15.735,3.651,15.625,3.725,15.515,3.798z"/>
		</g>
	</g>
	<g>
		<g>
			<g>
				<path fill="#4B5560" d="M22.3,14.599h-0.061v0.355H22.3c0.416,0,0.747,0.33,0.747,0.746v0.479c0,0.416-0.331,0.747-0.747,0.747
					h-0.465v0.354H22.3c0.612,0,1.103-0.502,1.103-1.102V15.7C23.402,15.089,22.912,14.599,22.3,14.599z"/>
			</g>
			<g>
				<path fill="#4B5560" d="M21.994,16.926h-0.062v0.354h0.062c0.416,0,0.747,0.33,0.747,0.748v0.477
					c0,0.417-0.331,0.748-0.747,0.748h-0.466v0.355h0.466c0.611,0,1.103-0.503,1.103-1.104v-0.477
					C23.097,17.427,22.605,16.926,21.994,16.926z"/>
			</g>
			<g>
				<path fill="#4B5560" d="M16.666,6.784c-0.478,0-0.87,0.393-0.87,0.869v1.36c0,1.188-0.539,2.29-1.47,3.024l-1.286,1.018v7.018
					l2.339,1.225h6.295c0.466,0,0.847-0.38,0.847-0.846v-0.343c0-0.466-0.381-0.845-0.847-0.845h-0.036v0.355h0.036
					c0.27,0,0.49,0.221,0.49,0.489v0.343c0,0.27-0.221,0.49-0.49,0.49h-6.209l-2.07-1.077v-6.614l1.151-0.907
					c1.017-0.808,1.605-2.008,1.605-3.318v-1.36c0-0.28,0.232-0.502,0.501-0.502c0.21,0,0.381,0.124,0.467,0.306
					c0.771,1.79,0.991,3.432,0.673,5.011l-0.049,0.22h4.789c0.416,0,0.746,0.331,0.746,0.747v0.43c0,0.416-0.33,0.746-0.746,0.746
					h-0.087v0.355h0.087c0.612,0,1.102-0.502,1.102-1.102v-0.43c0-0.611-0.502-1.103-1.102-1.103h-4.361
					c0.283-1.592,0.038-3.232-0.734-5.009C17.315,6.992,17.01,6.784,16.666,6.784z"/>
			</g>
		</g>
		<g>
			<path fill="#F99D1C" d="M17.45,7.323c0.771,1.775,1.017,3.418,0.734,5.01h4.36c0.601,0,1.103,0.489,1.103,1.101v0.43
				c0,0.44-0.258,0.833-0.637,1.005c0.245,0.195,0.392,0.502,0.392,0.845v0.478c0,0.453-0.282,0.846-0.687,1.017
				c0.233,0.208,0.381,0.502,0.381,0.833v0.478c0,0.489-0.32,0.906-0.771,1.054c0.121,0.146,0.196,0.33,0.196,0.538v0.343
				c0,0.466-0.381,0.846-0.847,0.846H15.38l-2.339-1.225v-7.018l1.286-1.018c0.931-0.734,1.47-1.837,1.47-3.024v-1.36
				c0-0.477,0.392-0.869,0.87-0.869C17.01,6.784,17.315,6.992,17.45,7.323z M13.396,13.239v6.626l2.07,1.077h6.209
				c0.27,0,0.49-0.221,0.49-0.49v-0.343c0-0.269-0.221-0.489-0.49-0.489v-0.355h0.319c0.416,0,0.747-0.331,0.747-0.747V18.04
				c0-0.404-0.317-0.723-0.711-0.747l-0.195-0.013l0.061-0.342H22.3c0.416,0,0.747-0.332,0.747-0.748v-0.478
				c0-0.367-0.271-0.673-0.623-0.735l-0.185-0.023l0.061-0.345h0.233c0.416,0,0.746-0.33,0.746-0.746v-0.43
				c0-0.416-0.33-0.746-0.746-0.746h-4.789l0.049-0.221c0.318-1.579,0.099-3.222-0.673-5.009c-0.086-0.184-0.257-0.307-0.467-0.307
				c-0.269,0-0.501,0.222-0.501,0.502v1.36c0,1.31-0.588,2.51-1.605,3.319L13.396,13.239L13.396,13.239z"/>
		</g>
		<g>
			<path fill="#F3F3F3" d="M15.576,20.514l-1.751-0.919v-6.161l0.992-0.782c1.115-0.883,1.764-2.217,1.764-3.638v-1.36
				c0-0.049,0.038-0.086,0.086-0.086c0.038,0,0.061,0.025,0.085,0.05c0.735,1.703,0.944,3.258,0.649,4.751l-0.146,0.725h5.303
				c0.185,0,0.332,0.146,0.332,0.33v0.43c0,0.182-0.147,0.33-0.332,0.33h-0.086c-0.292,0-0.55,0.207-0.6,0.502v0.012
				c-0.061,0.33,0.159,0.637,0.489,0.698c0.161,0.024,0.271,0.159,0.271,0.318v0.478c0,0.184-0.146,0.331-0.331,0.331h-0.257
				c-0.294,0-0.538,0.208-0.588,0.489c-0.062,0.355,0.195,0.687,0.563,0.711c0.171,0.012,0.307,0.146,0.307,0.318v0.478
				c0,0.184-0.146,0.331-0.331,0.331h-0.073c-0.295,0-0.54,0.244-0.54,0.539v0.207c0,0.111,0.038,0.233,0.11,0.319
				c0.074,0.098,0.233,0.122,0.233,0.343s-0.245,0.27-0.392,0.27h-5.757V20.514z"/>
		</g>
		<g>
			<path fill="#F99D1C" d="M13.396,21.052H9.023v-9.148h4.372V21.052z M9.391,20.697h3.65v-8.439h-3.65V20.697z"/>
		</g>
		<g>
			<rect x="9.808" y="12.688" fill="#C1BCAE" width="2.817" height="7.594"/>
		</g>
		<g>
			<path fill="#F3F3F3" d="M12.134,13.827c0,0.502-0.416,0.918-0.918,0.918s-0.918-0.416-0.918-0.918s0.416-0.919,0.918-0.919
				S12.134,13.313,12.134,13.827z M11.767,13.827c0-0.307-0.245-0.553-0.551-0.553s-0.551,0.246-0.551,0.553
				c0,0.306,0.245,0.551,0.551,0.551S11.767,14.133,11.767,13.827z"/>
		</g>
	</g>
</g>
</svg>
