<?xml version="1.0" encoding="utf-8"?>
<!-- Generator: Adobe Illustrator 16.0.0, SVG Export Plug-In . SVG Version: 6.00 Build 0)  -->
<!DOCTYPE svg PUBLIC "-//W3C//DTD SVG 1.1//EN" "http://www.w3.org/Graphics/SVG/1.1/DTD/svg11.dtd">
<svg version="1.1" id="Layer_1" xmlns="http://www.w3.org/2000/svg" xmlns:xlink="http://www.w3.org/1999/xlink" x="0px" y="0px"
	 width="72px" height="72px" viewBox="0 0 72 72" enable-background="new 0 0 72 72" xml:space="preserve">
<g>
	<g>
		<path fill="#FED6A9" d="M51.528,66.301H18.779c-1.778,0-3.232-1.456-3.232-3.231V41.98c0-1.777,1.455-3.231,3.232-3.231h32.749
			c1.777,0,3.231,1.454,3.231,3.231v21.089C54.734,64.872,53.306,66.301,51.528,66.301z M18.779,39.637
			c-1.292,0-2.37,1.052-2.37,2.369v21.088c0,1.295,1.05,2.372,2.37,2.372h32.749c1.292,0,2.371-1.052,2.371-2.372V42.006
			c0-1.292-1.051-2.369-2.371-2.369H18.779z"/>
	</g>
	<g>
		<path fill="#E0E1E0" d="M18.779,64.442c-0.754,0-1.347-0.619-1.347-1.349V42.006c0-0.754,0.619-1.346,1.347-1.346h32.749
			c0.754,0,1.348,0.619,1.348,1.346v21.088c0,0.755-0.619,1.349-1.348,1.349H18.779z"/>
	</g>
	<g>
		<path fill="#FED6A9" d="M51.34,70.475H18.94c-1.858,0-3.394-1.509-3.394-3.393v-1.645h39.188v1.645
			C54.734,68.966,53.226,70.475,51.34,70.475z M16.409,66.301v0.781c0,1.398,1.131,2.53,2.531,2.53H51.34
			c1.4,0,2.532-1.132,2.532-2.53v-0.781H16.409z"/>
	</g>
	<g>
		<path fill="#E0E1E0" d="M18.94,68.616c-0.753,0-1.4-0.565-1.508-1.292h35.416c-0.108,0.727-0.753,1.292-1.509,1.292H18.94z"/>
	</g>
	<g>
		<circle fill="#B7B7B8" cx="35.154" cy="53.318" r="3.906"/>
	</g>
	<g>
		<path fill="#393F73" d="M35.154,57.655c-2.396,0-4.337-1.939-4.337-4.338c0-2.395,1.94-4.333,4.337-4.333
			c2.396,0,4.336,1.938,4.336,4.333C39.49,55.716,37.55,57.655,35.154,57.655z M35.154,49.845c-1.913,0-3.474,1.562-3.474,3.473
			c0,1.913,1.562,3.475,3.474,3.475c1.914,0,3.476-1.562,3.476-3.475C38.63,51.406,37.067,49.845,35.154,49.845z"/>
	</g>
	<g>
		<path fill="#FED6A9" d="M53.872,63.283V41.98c0-1.292-1.052-2.371-2.369-2.371H18.779c-1.292,0-2.37,1.051-2.37,2.371v20.575
			L8.167,56.9c-2.047-1.4-3.258-3.717-3.258-6.196c0-0.995,0.188-1.937,0.564-2.854c0.377-0.916,0.917-1.723,1.616-2.425
			L19.184,33.2c1.642-1.644,3.904-2.585,6.22-2.585H44.93c2.318,0,4.579,0.941,6.221,2.585l11.96,12.254
			c1.373,1.428,2.128,3.286,2.128,5.25v0.244c0,2.344-1.106,4.579-2.963,5.979L53.872,63.283z M18.779,38.774h32.749
			c1.777,0,3.231,1.456,3.231,3.231v19.555l7.003-5.334c1.645-1.237,2.641-3.231,2.641-5.304v-0.244c0-1.75-0.674-3.392-1.886-4.659
			L50.56,33.766c-1.481-1.481-3.528-2.343-5.603-2.343H25.378c-2.101,0-4.148,0.861-5.603,2.343L7.683,46.02
			c-0.619,0.618-1.105,1.348-1.427,2.155c-0.325,0.81-0.513,1.67-0.513,2.529c0,2.211,1.078,4.258,2.882,5.495l6.895,4.74V42.006
			C15.547,40.203,17.001,38.774,18.779,38.774z"/>
	</g>
	<g>
		<path fill="#E0E1E0" d="M55.758,41.98c0-0.674-0.161-1.292-0.431-1.858l6.436,6.597c1.051,1.051,1.614,2.479,1.614,3.96v0.244
			c0,1.75-0.832,3.447-2.232,4.494l-5.387,4.097V41.98L55.758,41.98z M9.218,55.366c-1.535-1.051-2.45-2.804-2.45-4.662
			c0-0.724,0.134-1.453,0.43-2.152c0.269-0.674,0.674-1.295,1.213-1.833l6.651-6.732c-0.323,0.594-0.512,1.266-0.512,1.994v17.022
			L9.218,55.366z M20.476,34.493c1.292-1.293,3.07-2.048,4.902-2.048h19.526c1.831,0,3.608,0.754,4.901,2.048l3.661,3.743
			c-0.591-0.297-1.237-0.485-1.938-0.485H18.779c-0.728,0-1.428,0.188-2.047,0.512L20.476,34.493z"/>
	</g>
	<g>
		<path fill="#C5CCD2" d="M35.828,31.449c-5.952,0-10.799-4.847-10.799-10.799c0-5.953,4.847-10.8,10.799-10.8
			c5.954,0,10.799,4.847,10.799,10.8C46.627,26.603,41.781,31.449,35.828,31.449z M35.828,10.712c-5.468,0-9.938,4.444-9.938,9.938
			c0,5.494,4.443,9.937,9.938,9.937c5.496,0,9.937-4.443,9.937-9.937C45.765,15.156,41.323,10.712,35.828,10.712z"/>
	</g>
	<g>
		<path fill="#FFD552" d="M35.828,29.591c-4.929,0-8.942-4.012-8.942-8.941s4.014-8.942,8.942-8.942
			c4.927,0,8.941,4.013,8.941,8.942S40.755,29.591,35.828,29.591z"/>
	</g>
	<g>
		<path fill="#C5CCD2" d="M23.734,23.693c-1.185,0-2.181-0.969-2.181-2.182v-1.831c0-1.186,0.97-2.182,2.181-2.182
			c1.186,0,2.183,0.968,2.183,2.182v1.831C25.89,22.724,24.92,23.693,23.734,23.693z M23.734,18.359
			c-0.727,0-1.319,0.593-1.319,1.321v1.831c0,0.727,0.592,1.32,1.319,1.32c0.727,0,1.319-0.593,1.319-1.32v-1.831
			C25.028,18.953,24.461,18.359,23.734,18.359z"/>
	</g>
	<g>
		<path fill="#C5CCD2" d="M47.947,23.693c-1.187,0-2.183-0.969-2.183-2.182v-1.831c0-1.186,0.971-2.182,2.183-2.182
			c1.185,0,2.18,0.968,2.18,2.182v1.831C50.103,22.724,49.132,23.693,47.947,23.693z M47.947,18.359c-0.729,0-1.32,0.593-1.32,1.321
			v1.831c0,0.727,0.591,1.32,1.32,1.32c0.727,0,1.32-0.593,1.32-1.32v-1.831C49.239,18.953,48.646,18.359,47.947,18.359z"/>
	</g>
	<g>
		<path fill="#C5CCD2" d="M24.57,18.279h-0.863v-1.05c0.513-2.316,1.724-4.47,3.475-6.113c2.344-2.235,5.333-3.367,8.646-3.313
			c3.286-0.054,6.275,1.105,8.647,3.313c1.723,1.643,2.96,3.797,3.473,6.113v0.081v0.943h-0.862v-0.889
			c-0.485-2.127-1.615-4.12-3.204-5.629c-2.183-2.073-4.984-3.124-8.053-3.07c-3.097-0.053-5.871,1.023-8.053,3.07
			c-1.588,1.509-2.721,3.501-3.204,5.629V18.279L24.57,18.279z"/>
	</g>
	<g>
		<path fill="#C5CCD2" d="M45.146,27.275h-9.184v-0.861h9.184c1.293,0,2.344-1.051,2.344-2.343v-0.781h0.862v0.781
			C48.377,25.82,46.924,27.275,45.146,27.275z"/>
	</g>
	<g>
		<path fill="#C5CCD2" d="M37.847,27.275h-3.123v-2.452h3.123V27.275z M35.585,26.414h1.4v-0.728h-1.4V26.414z"/>
	</g>
	<g>
		<path fill="#C5CCD2" d="M66.988,14.886H50.155l0.565-0.7c0.027-0.027,1.426-1.724,2.532-3.07V6.321c0-1.886,1.536-3.42,3.42-3.42
			h10.288c1.883,0,3.42,1.534,3.42,3.42v5.144C70.41,13.35,68.874,14.886,66.988,14.886z M51.96,14.024h15.028
			c1.4,0,2.558-1.158,2.558-2.559V6.321c0-1.4-1.157-2.559-2.558-2.559H56.7c-1.402,0-2.56,1.158-2.56,2.559v5.118l-0.108,0.107
			C53.333,12.381,52.499,13.377,51.96,14.024z"/>
	</g>
	<g>
		<path fill="#FFFFFF" d="M54.115,13.028c0.242-0.27,0.458-0.566,0.699-0.809l0.35-0.404V6.321c0-0.861,0.701-1.562,1.562-1.562
			h10.29c0.862,0,1.562,0.7,1.562,1.562v5.144c0,0.862-0.699,1.563-1.562,1.563H54.115z"/>
	</g>
	<g>
		<path fill="#C5CCD2" d="M17.487,17.632c-0.916,0-1.644-0.727-1.644-1.642c0-0.917,0.728-1.643,1.644-1.643
			c0.915,0,1.642,0.727,1.642,1.643C19.129,16.906,18.375,17.632,17.487,17.632z M17.487,15.236c-0.431,0-0.782,0.35-0.782,0.781
			c0,0.432,0.351,0.782,0.782,0.782s0.781-0.351,0.781-0.782C18.268,15.585,17.918,15.236,17.487,15.236z"/>
	</g>
	<g>
		<path fill="#C5CCD2" d="M9.03,14.939c-3.69,0-6.707-3.017-6.707-6.706c0-3.69,3.017-6.707,6.707-6.707
			c3.69,0,6.706,3.016,6.706,6.707c0,0.674-0.108,1.319-0.295,1.965c0.62,0.458,0.969,1.213,0.969,1.994
			c0,1.373-1.131,2.503-2.504,2.503c-0.594,0-1.158-0.215-1.616-0.591C11.292,14.644,10.188,14.939,9.03,14.939z M9.03,2.39
			c-3.231,0-5.844,2.612-5.844,5.844c0,3.231,2.613,5.844,5.844,5.844c1.104,0,2.182-0.297,3.097-0.889L12.423,13l0.242,0.269
			c0.324,0.351,0.754,0.567,1.24,0.567c0.915,0,1.642-0.728,1.642-1.643c0-0.592-0.322-1.132-0.834-1.427l-0.324-0.19l0.136-0.35
			c0.242-0.646,0.35-1.293,0.35-1.993C14.874,5.001,12.261,2.39,9.03,2.39z"/>
	</g>
	<g>
		<path fill="#FFFFFF" d="M9.03,13.081c-2.667,0-4.848-2.182-4.848-4.847c0-2.667,2.182-4.848,4.848-4.848
			c2.666,0,4.848,2.181,4.848,4.848c0,0.566-0.108,1.104-0.296,1.643l-0.404,1.131l1.05,0.593c0.215,0.107,0.323,0.322,0.323,0.564
			c0,0.35-0.295,0.646-0.646,0.646c-0.243,0-0.404-0.135-0.485-0.215l-0.808-0.915l-1.024,0.646
			C10.834,12.812,9.945,13.081,9.03,13.081z"/>
	</g>
	<g>
		<g>
			<rect x="6.201" y="7.803" fill="#4B5560" width="1.051" height="0.861"/>
		</g>
		<g>
			<rect x="8.464" y="7.803" fill="#4B5560" width="1.05" height="0.861"/>
		</g>
		<g>
			<rect x="10.7" y="7.803" fill="#4B5560" width="1.05" height="0.861"/>
		</g>
	</g>
	<g>
		<g>
			<rect x="58.989" y="8.476" fill="#4B5560" width="1.051" height="0.862"/>
		</g>
		<g>
			<rect x="61.225" y="8.476" fill="#4B5560" width="1.051" height="0.862"/>
		</g>
		<g>
			<rect x="63.458" y="8.476" fill="#4B5560" width="1.053" height="0.862"/>
		</g>
	</g>
</g>
</svg>
