<?xml version="1.0" encoding="utf-8"?>
<!-- Generator: Adobe Illustrator 16.0.0, SVG Export Plug-In . SVG Version: 6.00 Build 0)  -->
<!DOCTYPE svg PUBLIC "-//W3C//DTD SVG 1.1//EN" "http://www.w3.org/Graphics/SVG/1.1/DTD/svg11.dtd">
<svg version="1.1" id="Layer_1" xmlns="http://www.w3.org/2000/svg" xmlns:xlink="http://www.w3.org/1999/xlink" x="0px" y="0px"
	 width="72px" height="72px" viewBox="0 0 72 72" enable-background="new 0 0 72 72" xml:space="preserve">
<path fill="#E0E1E0" d="M59.016,56.606c0,2.355-1.91,4.265-4.266,4.265H9.614c-2.355,0-4.265-1.909-4.265-4.265V11.47
	c0-2.355,1.91-4.265,4.265-4.265H54.75c2.355,0,4.266,1.91,4.266,4.265V56.606z"/>
<circle fill="#FFD552" cx="53.667" cy="52.841" r="14.417"/>
<path fill="#5D5E5E" d="M9.199,62.202h27.163v-2.09H9.199c-1.731,0-3.135-1.403-3.135-3.134V11.011c0-1.731,1.403-3.134,3.135-3.134
	h45.967c1.731,0,3.135,1.402,3.135,3.134V35.04h2.089V11.011c-0.003-2.884-2.339-5.22-5.224-5.224H9.199
	c-2.883,0.003-5.219,2.34-5.224,5.224v45.968C3.979,59.862,6.315,62.199,9.199,62.202z"/>
<path fill="#C0BBAE" d="M8.155,9.966h2.089v2.089H8.155V9.966z"/>
<path fill="#C0BBAE" d="M12.333,9.966h2.09v2.089h-2.09V9.966z"/>
<path fill="#C0BBAE" d="M16.512,9.966h2.089v2.089h-2.089V9.966z"/>
<path fill="#C0BBAE" d="M8.155,14.145h48.056v2.09H8.155V14.145z"/>
<path fill="#2A4F9E" d="M18.907,18.63l-2.653,2.653c-2.244-1.485-5.247-1.029-6.95,1.054c-1.702,2.083-1.549,5.117,0.353,7.02
	c1.901,1.902,4.937,2.055,7.02,0.353c2.083-1.702,2.539-4.706,1.054-6.948l2.653-2.654L18.907,18.63z M13.377,28.771
	c-1.731,0-3.133-1.403-3.133-3.134s1.402-3.134,3.133-3.134c0.467,0.002,0.925,0.108,1.343,0.313l-2.082,2.081l1.477,1.477
	l2.083-2.08c0.204,0.418,0.311,0.876,0.313,1.342C16.512,27.368,15.11,28.771,13.377,28.771z"/>
<path fill="#C0BBAE" d="M21.735,22.503h17.76v2.089h-17.76V22.503z"/>
<path fill="#C0BBAE" d="M21.735,26.682h7.313v2.089h-7.313V26.682z"/>
<path fill="#C0BBAE" d="M31.138,26.682h14.625v2.089H31.138V26.682z"/>
<path fill="#C0BBAE" d="M41.584,22.503h10.448v2.089H41.584V22.503z"/>
<path fill="#2A4F9E" d="M18.907,31.166l-2.653,2.654c-2.244-1.485-5.247-1.029-6.95,1.054c-1.702,2.083-1.549,5.117,0.353,7.02
	c1.901,1.902,4.937,2.055,7.02,0.353c2.083-1.702,2.539-4.705,1.054-6.949l2.653-2.653L18.907,31.166z M13.377,41.308
	c-1.731,0-3.133-1.403-3.133-3.135s1.402-3.133,3.133-3.133c0.467,0.001,0.925,0.108,1.343,0.313l-2.082,2.081l1.477,1.478
	l2.083-2.081c0.204,0.419,0.311,0.877,0.313,1.343C16.512,39.904,15.11,41.308,13.377,41.308z"/>
<path fill="#C0BBAE" d="M21.735,35.04h17.76v2.088h-17.76V35.04z"/>
<path fill="#C0BBAE" d="M21.735,39.218h7.313v2.09h-7.313V39.218z"/>
<path fill="#C0BBAE" d="M31.138,39.218h8.357v2.09h-8.357V39.218z"/>
<path fill="#C0BBAE" d="M41.584,35.04h4.18v2.088h-4.18V35.04z"/>
<path fill="#2A4F9E" d="M18.907,43.703l-2.653,2.652c-2.244-1.483-5.247-1.028-6.95,1.056c-1.702,2.083-1.549,5.117,0.353,7.02
	c1.901,1.902,4.937,2.054,7.02,0.354c2.083-1.703,2.539-4.708,1.054-6.95l2.653-2.654L18.907,43.703z M13.377,53.843
	c-1.731,0-3.133-1.401-3.133-3.133c0-1.73,1.402-3.134,3.133-3.134c0.467,0.001,0.925,0.107,1.343,0.313l-2.082,2.081l1.477,1.479
	l2.083-2.08c0.204,0.417,0.311,0.876,0.313,1.342C16.512,52.441,15.11,53.843,13.377,53.843z"/>
<path fill="#C0BBAE" d="M21.735,47.576h13.582v2.089H21.735V47.576z"/>
<path fill="#C0BBAE" d="M21.735,51.755h7.313v2.088h-7.313V51.755z"/>
<path fill="#C0BBAE" d="M31.138,51.755h4.178v2.088h-4.178V51.755z"/>
<path fill="#FFD552" d="M53.076,68.471c8.656,0,15.672-7.018,15.672-15.672c0-8.655-7.016-15.671-15.672-15.671
	c-8.654,0-15.67,7.016-15.67,15.671C37.416,61.45,44.427,68.461,53.076,68.471z M53.076,39.218c7.501,0,13.582,6.082,13.582,13.581
	c0,7.502-6.081,13.582-13.582,13.582c-7.5,0-13.581-6.08-13.581-13.582C39.504,45.302,45.579,39.227,53.076,39.218z"/>
<path fill="#2A4F9E" d="M46.705,53.377l-1.871,0.935l2.09,4.178c0.15,0.301,0.436,0.512,0.768,0.565
	c0.054,0.007,0.107,0.013,0.162,0.014c0.276,0,0.542-0.111,0.739-0.307l12.535-12.536l-1.477-1.478L48.139,56.26L46.705,53.377z"/>
<circle fill="none" stroke="#C0BBAE" stroke-width="2.7" stroke-miterlimit="10" cx="13.378" cy="25.441" r="4.114"/>
<circle fill="none" stroke="#C0BBAE" stroke-width="2.7" stroke-miterlimit="10" cx="13.378" cy="38.152" r="4.114"/>
<circle fill="none" stroke="#C0BBAE" stroke-width="2.7" stroke-miterlimit="10" cx="13.378" cy="50.697" r="4.114"/>
<rect x="12.079" y="21.457" transform="matrix(-0.7071 0.7071 -0.7071 -0.7071 44.0977 26.738)" fill="#2A4F9E" width="8.864" height="2.09"/>
<rect x="12.079" y="33.995" transform="matrix(-0.7071 0.7071 -0.7071 -0.7071 52.9631 48.1411)" fill="#2A4F9E" width="8.864" height="2.09"/>
<rect x="12.079" y="46.531" transform="matrix(-0.7071 0.7071 -0.7071 -0.7071 61.8279 69.5424)" fill="#2A4F9E" width="8.864" height="2.09"/>
</svg>
