<?xml version="1.0" encoding="utf-8"?>
<!-- Generator: Adobe Illustrator 16.0.0, SVG Export Plug-In . SVG Version: 6.00 Build 0)  -->
<!DOCTYPE svg PUBLIC "-//W3C//DTD SVG 1.1//EN" "http://www.w3.org/Graphics/SVG/1.1/DTD/svg11.dtd">
<svg version="1.1" id="Layer_1" xmlns="http://www.w3.org/2000/svg" xmlns:xlink="http://www.w3.org/1999/xlink" x="0px" y="0px"
	 width="72px" height="72px" viewBox="0 0 72 72" enable-background="new 0 0 72 72" xml:space="preserve">
<g>
	<g>
		<g>
			<g>
				<path fill="#E3E983" d="M64.478,62.637c0.628-0.765,0.982-1.392,1.447-2.267c0.19-0.327,0.354-0.682,0.519-1.036
					c0.054-0.082,0.082-0.192,0.108-0.273c0.056-0.136,0.137-0.272,0.191-0.437c0.573-1.394,0.982-2.867,1.174-4.369
					c0.056-0.519,0.109-1.01,0.109-1.529c0-0.055,0-0.108,0-0.163c0-0.164,0-0.327,0-0.464c0-0.192,0-0.383,0-0.574
					c0-0.027,0-0.082,0-0.108c-0.054-1.693-0.383-3.386-0.955-4.997c-0.656-1.829-1.611-3.522-2.841-5.024c0,0,0,0,0-0.054
					c0-0.328-0.245-0.519-0.572-0.601c-0.027,0-0.027-0.028-0.027-0.028l0,0c-1.611-1.774-3.604-3.221-5.843-4.176
					c-1.283-0.546-2.648-0.956-4.068-1.174h-0.027c-0.246-0.028-0.464-0.055-0.71-0.083c-0.055,0-0.109-0.027-0.163-0.027
					c-0.219-0.027-0.465-0.027-0.683-0.055c-0.056,0-0.137,0-0.192-0.026c-0.3-0.028-0.601-0.028-0.873-0.028l0,0l0,0
					c-0.3,0-0.601,0-0.874,0.028c-0.054,0-0.136,0-0.19,0.026c-0.219,0.028-0.464,0.028-0.683,0.055
					c-0.055,0-0.11,0.027-0.164,0.027c-0.246,0.028-0.464,0.055-0.71,0.083h-0.027c-1.393,0.218-2.784,0.628-4.067,1.174
					c-2.24,0.955-4.232,2.401-5.844,4.176l0,0l-0.026,0.028c-0.301,0.082-0.574,0.301-0.574,0.601c0,0.054,0,0.054,0,0.054
					c-1.201,1.502-2.184,3.195-2.839,5.024c-0.573,1.611-0.874,3.304-0.956,4.997c0,0.026,0,0.081,0,0.108c0,0.191,0,0.382,0,0.574
					c0,0.163,0,0.327,0,0.464c0,0.055,0,0.108,0,0.163c0.027,0.52,0.055,1.011,0.109,1.529c0.191,1.502,0.573,2.976,1.174,4.369
					c0.055,0.136,0.137,0.272,0.191,0.437c0.027,0.081,0.082,0.191,0.109,0.273c0.164,0.354,0.328,0.709,0.519,1.036
					c0.491,0.875,1.038,1.694,1.665,2.458l0,0c0.683,0.847,0.383,1.611,0.136,1.993l-0.026,0.027l-2.457,4.259h1.502l2.594-2.62
					c0.382-0.438,0.818-0.546,1.146-0.546h0.464c0.137,0.108,0.301,0.219,0.464,0.3l0.027,0.027c0.301,0.19,0.629,0.409,1.01,0.628
					c0.055,0.026,0.11,0.055,0.165,0.082c0.054,0.027,0.136,0.081,0.19,0.109c0.191,0.108,0.382,0.19,0.574,0.301
					c0.108,0.054,0.245,0.108,0.354,0.163c0.11,0.054,0.219,0.109,0.329,0.137c0.873,0.383,1.774,0.682,2.73,0.929
					c0.136,0.026,0.272,0.054,0.381,0.081c1.175,0.272,2.403,0.409,3.658,0.409l0,0h0.028h0.027l0,0
					c1.256,0,2.458-0.137,3.658-0.409c0.137-0.027,0.273-0.055,0.382-0.081c0.929-0.219,1.857-0.546,2.73-0.929
					c0.11-0.055,0.219-0.083,0.328-0.137c0.109-0.055,0.246-0.109,0.354-0.163c0.192-0.082,0.383-0.192,0.574-0.301
					c0.054-0.028,0.136-0.082,0.19-0.109s0.11-0.056,0.164-0.082c0.382-0.219,0.709-0.409,1.01-0.628l0.028-0.027
					c0.055-0.055,0.163-0.137,0.3-0.218c0.246-0.192,0.52-0.273,0.819-0.301l0,0c0.3,0,0.736,0.082,1.146,0.546l3.03,3.003h1.502
					l-2.921-4.642l-0.028-0.027C64.095,64.275,63.795,63.511,64.478,62.637C64.478,62.665,64.478,62.665,64.478,62.637z
					 M63.467,60.398c-0.082,0.108-0.164,0.245-0.246,0.355c-0.082,0.108-0.137,0.19-0.219,0.299
					c-0.026,0.028-0.054,0.056-0.081,0.11c-2.785,3.658-7.154,5.896-11.85,5.896c-4.696,0-9.064-2.238-11.85-5.896
					c-0.027-0.027-0.054-0.055-0.082-0.11c-0.082-0.108-0.137-0.19-0.219-0.299c-0.082-0.11-0.163-0.247-0.245-0.355
					c0-0.028-0.027-0.028-0.027-0.055c-0.655-1.01-1.201-2.102-1.61-3.222c-0.028-0.028-0.028-0.082-0.055-0.109
					c-0.027-0.082-0.055-0.164-0.082-0.246c-1.584-4.914-0.465-10.538,3.003-14.442c2.813-3.168,6.853-4.997,11.14-5.024
					c4.287,0.027,8.328,1.83,11.14,5.024c3.468,3.904,4.587,9.528,3.003,14.442c-0.026,0.082-0.055,0.164-0.081,0.246
					c-0.027,0.027-0.027,0.081-0.056,0.109c-0.409,1.146-0.955,2.212-1.61,3.222C63.467,60.344,63.467,60.37,63.467,60.398z"/>
			</g>
			<g>
				<path fill="#E3E983" d="M35.7,37.709l10.812-5.733l-0.601-1.147c-0.901-1.72-2.703-2.785-4.642-2.785
					c-0.847,0-1.692,0.218-2.457,0.6l-1.556,0.819c-2.567,1.365-3.523,4.533-2.185,7.099L35.7,37.709z"/>
			</g>
			<g>
				<path fill="#E3E983" d="M67.043,36.563c0.656-1.229,0.793-2.648,0.383-3.985c-0.409-1.339-1.311-2.431-2.566-3.085l-1.557-0.819
					c-0.765-0.41-1.583-0.601-2.457-0.601c-1.938,0-3.74,1.064-4.642,2.785l-0.601,1.146l10.812,5.733L67.043,36.563z"/>
			</g>
		</g>
		<g>
			<path fill="#4B5560" d="M34.935,40.248l-1.475-2.813c-1.829-3.467-0.518-7.78,2.949-9.61l1.556-0.819
				c1.01-0.546,2.184-0.819,3.33-0.819c2.649,0,5.052,1.447,6.308,3.796l1.475,2.812L34.935,40.248z M41.27,27.034
				c-1.01,0-2.021,0.245-2.921,0.737l-1.557,0.819c-1.475,0.792-2.567,2.102-3.059,3.686c-0.491,1.583-0.327,3.276,0.438,4.75
				l1.064,2.048l12.587-6.662l-1.065-2.048C45.721,28.317,43.591,27.034,41.27,27.034z"/>
		</g>
		<g>
			<path fill="#4B5560" d="M67.234,40.248l-14.115-7.48l1.475-2.813c1.229-2.348,3.658-3.795,6.279-3.795
				c1.146,0,2.294,0.273,3.331,0.819l1.557,0.819c1.692,0.901,2.921,2.375,3.467,4.204s0.383,3.741-0.519,5.433L67.234,40.248z
				 M54.266,32.413l12.587,6.662l1.064-2.048c0.792-1.474,0.929-3.167,0.438-4.75c-0.492-1.584-1.584-2.894-3.059-3.686
				l-1.556-0.819c-0.901-0.464-1.911-0.737-2.922-0.737c-2.321,0-4.45,1.283-5.542,3.331L54.266,32.413z"/>
		</g>
	</g>
	<g>
		<path fill="#4B5560" d="M51.891,34.133h-1.829v-4.942h1.829V34.133z M50.908,33.286h0.108v-3.221h-0.108V33.286z"/>
	</g>
	<g>
		<path fill="#4B5560" d="M54.129,30.065h-6.307v-2.73h6.307V30.065z M48.668,29.191h4.587v-1.01h-4.587V29.191z"/>
	</g>
	<g>
		<polygon fill="#4B5560" points="37.829,70.992 32.314,70.992 36.519,63.702 37.257,64.112 33.789,70.146 37.447,70.146 
			40.45,67.115 41.079,67.716 		"/>
	</g>
	<g>
		<g>
			<path fill="#C3CAD1" d="M31.276,55.102H1.735V5.71h11.876v3.222c0,0.082,0,0.137,0.027,0.191c0,0.055,0,0.055,0.027,0.082
				c0.028,0.082,0.028,0.137,0.055,0.219c0,0.027,0.027,0.054,0.027,0.082l0.054,0.082c0.055,0.082,0.083,0.137,0.137,0.191
				c0.028,0.027,0.055,0.055,0.055,0.082l0.082,0.055l0.164,0.136c0,0,0.027,0,0.027,0.027c0.054,0.028,0.082,0.055,0.109,0.055
				c0.055,0.027,0.137,0.055,0.218,0.082c0.027,0,0.082,0.027,0.109,0.027s0.027,0,0.054,0l0.273,0.027c0.027,0,0.055,0,0.082,0
				h0.054c0.028,0,0.055,0,0.109-0.027l0.328-0.109c0.027,0,0.054-0.027,0.054-0.027l0.082-0.055c0.027,0,0.027-0.027,0.055-0.027
				c0.082-0.055,0.164-0.137,0.246-0.219c0.027-0.027,0.055-0.082,0.082-0.109c0.055-0.082,0.082-0.164,0.137-0.219
				c0.028-0.027,0.028-0.082,0.028-0.109V9.342c0.027-0.083,0.054-0.164,0.054-0.246c0-0.055,0-0.11,0-0.136V5.71h25.692v3.222
				c0,0.082,0,0.137,0.027,0.191c0,0.055,0,0.055,0.027,0.082c0.026,0.082,0.026,0.137,0.055,0.219c0,0.027,0.027,0.054,0.027,0.082
				l0.055,0.082c0.054,0.082,0.082,0.137,0.137,0.191c0.026,0.027,0.054,0.055,0.082,0.082l0.081,0.082l0.164,0.11l0,0
				c0,0,0,0,0.027,0c0.055,0.027,0.081,0.055,0.109,0.055c0.054,0.027,0.136,0.054,0.218,0.082c0.027,0,0.083,0.027,0.109,0.027
				c0.027,0,0.027,0,0.055,0l0.272,0.027c0.028,0,0.056,0,0.082,0h0.055c0.027,0,0.056,0,0.109-0.027l0.328-0.109
				c0.027,0,0.054-0.028,0.054-0.028l0.082-0.054c0.028,0,0.028-0.027,0.055-0.027c0.082-0.055,0.164-0.137,0.246-0.218
				c0.027-0.028,0.055-0.082,0.081-0.11c0.056-0.082,0.083-0.163,0.137-0.218c0.028-0.027,0.028-0.082,0.028-0.109V9.314
				c0.027-0.082,0.054-0.164,0.054-0.246c0-0.055,0-0.109,0-0.137V5.71h11.877v20.478l-0.654,0.383H45.938l-0.108-0.055
				l-0.601-0.354c-1.283-0.737-2.648-1.12-3.959-1.12c-0.301,0-0.573,0.028-0.847,0.054c-1.064,0.11-2.103,0.438-3.003,0.901
				l-1.557,0.819c-0.765,0.41-1.447,0.901-2.047,1.53c-0.847,0.873-1.502,1.911-1.911,3.058c-0.601,1.692-0.628,3.549-0.083,5.214
				c0.137,0.465,0.355,0.929,0.574,1.365l1.802,3.386l-0.137,0.219c-0.792,1.283-1.447,2.62-1.938,4.04
				c-0.437,1.257-0.737,2.539-0.928,3.878c-0.109,0.9-0.164,1.774-0.164,2.675c0,0.819,0.054,1.638,0.164,2.485L31.276,55.102z
				 M2.608,54.228h27.712c-0.082-0.709-0.109-1.42-0.109-2.103c0-0.928,0.055-1.856,0.191-2.784c0.191-1.394,0.519-2.73,0.956-4.041
				c0.464-1.393,1.12-2.73,1.884-3.986l-1.557-2.948c-0.246-0.492-0.464-0.983-0.628-1.502c-0.601-1.857-0.573-3.904,0.082-5.761
				c0.438-1.255,1.174-2.43,2.103-3.385c0.655-0.683,1.419-1.229,2.238-1.666l1.557-0.819c1.01-0.546,2.156-0.901,3.33-1.01
				c0.301-0.027,0.601-0.054,0.956-0.054c1.638,0,3.331,0.518,4.887,1.529h9.611V6.584H45.665V8.96c0,0.082,0,0.163-0.026,0.245
				c0,0.137-0.028,0.273-0.083,0.41c-0.027,0.082-0.054,0.164-0.082,0.219c-0.054,0.108-0.108,0.245-0.219,0.382
				c-0.054,0.055-0.081,0.11-0.136,0.164c-0.137,0.164-0.273,0.3-0.437,0.382c-0.027,0.028-0.055,0.028-0.082,0.055
				c-0.028,0.027-0.055,0.027-0.082,0.055v0.026l-0.245,0.11c0,0,0,0-0.028,0l-0.055,0.027c-0.027,0.028-0.082,0.028-0.108,0.028
				c-0.137,0.054-0.272,0.082-0.409,0.082c0,0-0.028,0-0.056,0c-0.137,0-0.273,0-0.409,0h-0.055l-0.41-0.082
				c-0.136-0.028-0.245-0.082-0.354-0.165c-0.055-0.026-0.109-0.054-0.163-0.082c-0.055-0.027-0.082-0.055-0.137-0.109l-0.273-0.246
				c-0.027-0.028-0.082-0.082-0.109-0.11c-0.081-0.082-0.163-0.191-0.218-0.327c0,0-0.027-0.027-0.027-0.083
				c-0.028-0.026-0.028-0.054-0.055-0.082c-0.027-0.027-0.027-0.082-0.055-0.136c-0.027-0.109-0.082-0.218-0.109-0.3
				c0-0.055-0.027-0.109-0.027-0.165c-0.027-0.082-0.027-0.19-0.027-0.327V6.584H17.215V8.96c0,0.082,0,0.163-0.027,0.245
				c0,0.137-0.027,0.273-0.082,0.41c-0.028,0.082-0.055,0.164-0.082,0.219c-0.054,0.108-0.109,0.245-0.219,0.382
				c-0.054,0.055-0.082,0.11-0.136,0.164c-0.137,0.164-0.273,0.3-0.437,0.382c-0.027,0.028-0.054,0.028-0.082,0.055
				c-0.028,0.027-0.055,0.027-0.082,0.055v0.026l-0.246,0.11h-0.027l-0.055,0.027c-0.027,0.028-0.082,0.028-0.109,0.028
				c-0.136,0.054-0.273,0.082-0.409,0.082c0,0-0.027,0-0.055,0c-0.136,0-0.273,0-0.41,0h-0.054l-0.41-0.082
				c-0.136-0.028-0.246-0.082-0.355-0.165c-0.054-0.026-0.109-0.054-0.164-0.082c-0.055-0.027-0.082-0.055-0.137-0.109l-0.273-0.246
				c-0.027-0.028-0.082-0.082-0.109-0.11c-0.082-0.082-0.164-0.191-0.218-0.327c0,0-0.027-0.027-0.027-0.083
				c-0.028-0.026-0.028-0.054-0.055-0.082c-0.027-0.027-0.027-0.082-0.054-0.136c-0.027-0.109-0.082-0.191-0.109-0.3
				c0-0.055-0.027-0.109-0.027-0.165c-0.027-0.082-0.027-0.19-0.027-0.327V6.584H2.608V54.228z"/>
		</g>
		<g>
			<path fill="#C3CAD1" d="M54.785,7.595v17.119h-3.714v-6.935H7.332v31.645h22.033c-0.109,0.901-0.164,1.829-0.164,2.73
				c0,0.354,0,0.736,0.027,1.092H3.619V7.595h8.136V8.96c0,0.163,0,0.327,0.027,0.464c0.218,1.419,1.474,2.566,2.894,2.703
				c1.72,0.164,3.331-1.119,3.522-2.839c0.027-0.109,0.027-0.218,0.027-0.355V7.567h21.952v1.365c0,1.501,1.201,2.895,2.648,3.194
				c1.802,0.383,3.549-1.064,3.794-2.839c0.028-0.109,0.028-0.218,0.028-0.355V7.567h8.137V7.595z"/>
		</g>
		<g>
			<g>
				<path fill="#C3CAD1" d="M14.977,11.171c-1.229,0-2.239-1.01-2.239-2.239V3.363c0.027-1.229,1.01-2.239,2.239-2.239
					s2.239,1.011,2.239,2.239V8.96C17.215,10.161,16.205,11.171,14.977,11.171z M14.977,1.998c-0.765,0-1.365,0.601-1.365,1.365
					V8.96c0,0.764,0.601,1.365,1.365,1.365s1.365-0.601,1.365-1.365V3.363C16.342,2.598,15.741,1.998,14.977,1.998z"/>
			</g>
			<g>
				<path fill="#C3CAD1" d="M43.426,11.171c-1.229,0-2.238-1.01-2.238-2.239V3.363c0-1.229,1.01-2.239,2.238-2.239
					c1.229,0,2.239,1.011,2.239,2.239V8.96C45.639,10.161,44.628,11.171,43.426,11.171z M43.426,1.998
					c-0.765,0-1.364,0.601-1.364,1.365V8.96c0,0.764,0.6,1.365,1.364,1.365s1.365-0.601,1.365-1.365V3.363
					C44.765,2.598,44.163,1.998,43.426,1.998z"/>
			</g>
		</g>
	</g>
	<g>
		<path fill="#8C857C" d="M31.195,49.859h-24.3V17.369h44.614v9.229h-5.571l-0.108-0.082c-1.447-0.956-3.031-1.446-4.533-1.446
			c-0.299,0-0.572,0.026-0.846,0.054c-1.065,0.109-2.102,0.437-3.003,0.901l-1.557,0.819c-0.764,0.41-1.447,0.901-2.048,1.528
			c-0.846,0.874-1.501,1.911-1.911,3.058c-0.601,1.693-0.627,3.55-0.082,5.215c0.137,0.464,0.354,0.928,0.573,1.365l1.802,3.385
			l-0.136,0.219c-0.792,1.283-1.447,2.622-1.938,4.041c-0.437,1.257-0.737,2.54-0.928,3.877L31.195,49.859z M7.741,48.985H30.43
			c0.191-1.255,0.492-2.483,0.901-3.658c0.464-1.393,1.12-2.73,1.884-3.986l-1.557-2.949c-0.246-0.49-0.464-0.982-0.627-1.502
			c-0.601-1.855-0.574-3.903,0.082-5.76c0.437-1.256,1.174-2.43,2.103-3.386c0.655-0.683,1.419-1.229,2.239-1.666l1.556-0.819
			c1.01-0.546,2.158-0.901,3.331-1.01c0.301-0.028,0.602-0.055,0.955-0.055c1.639,0,3.332,0.519,4.889,1.529h4.477v-7.508H7.741
			V48.985z"/>
	</g>
	<g>
		<g>
			<rect x="12.329" y="22.529" fill="#FFD552" width="5.706" height="5.488"/>
		</g>
		<g>
			<rect x="21.666" y="22.529" fill="#FFD552" width="5.707" height="5.488"/>
		</g>
		<g>
			<path fill="#FFD552" d="M36.737,22.529v3.331l-1.064,0.574c-0.819,0.437-1.529,0.982-2.129,1.583h-2.485v-5.488H36.737z"/>
		</g>
		<g>
			<path fill="#FFD552" d="M46.074,22.529v3.604c-1.392-0.928-3.058-1.529-4.778-1.529c-0.299,0-0.6,0.027-0.899,0.055v-2.13H46.074
				z"/>
		</g>
		<g>
			<rect x="12.329" y="31.238" fill="#FFD552" width="5.706" height="5.488"/>
		</g>
		<g>
			<rect x="21.666" y="31.238" fill="#FFD552" width="5.707" height="5.488"/>
		</g>
		<g>
			<path fill="#FFD552" d="M31.44,36.754h-0.409v-5.488h0.491C30.922,32.986,30.867,34.924,31.44,36.754z"/>
		</g>
		<g>
			<rect x="12.329" y="39.976" fill="#FFD552" width="5.706" height="5.488"/>
		</g>
		<g>
			<rect x="21.666" y="39.976" fill="#FFD552" width="5.707" height="5.488"/>
		</g>
		<g>
			<path fill="#FFD552" d="M33.733,41.341c-0.791,1.283-1.474,2.676-1.965,4.123h-0.737v-5.488h1.965L33.733,41.341z"/>
		</g>
	</g>
	<g>
		<g>
			<path fill="#8C857C" d="M18.444,28.454h-6.553v-6.362h6.553V28.454z M12.765,27.58h4.833v-4.614h-4.833V27.58z"/>
		</g>
		<g>
			<path fill="#8C857C" d="M27.809,28.454h-6.553v-6.362h6.553V28.454z M22.103,27.58h4.833v-4.614h-4.833V27.58z"/>
		</g>
		<g>
			<path fill="#8C857C" d="M33.707,28.454h-3.113v-6.362h6.553v4.041l-1.283,0.683c-0.765,0.41-1.447,0.901-2.047,1.53
				L33.707,28.454z M31.468,27.58h1.884c0.627-0.6,1.337-1.146,2.129-1.556l0.819-0.438v-2.621h-4.833V27.58L31.468,27.58z"/>
		</g>
		<g>
			<path fill="#8C857C" d="M45.829,26.488c-1.447-0.956-3.031-1.475-4.56-1.475c-0.301,0-0.573,0.027-0.847,0.055l-0.491-0.438
				v-2.13l0.437-0.436h5.706l0.438,0.436v3.604L45.829,26.488z M41.27,24.167c1.474,0,2.949,0.41,4.369,1.201v-2.402h-4.833v1.229
				C40.969,24.167,41.105,24.167,41.27,24.167z"/>
		</g>
		<g>
			<path fill="#8C857C" d="M18.444,37.163h-6.553v-6.361h6.553V37.163z M12.765,36.317h4.833v-4.642h-4.833V36.317z"/>
		</g>
		<g>
			<path fill="#8C857C" d="M27.809,37.163h-6.553v-6.361h6.553V37.163z M22.103,36.317h4.833v-4.642h-4.833V36.317z"/>
		</g>
		<g>
			<path fill="#8C857C" d="M32.041,37.163h-1.447v-6.361h1.529l-0.191,0.573c-0.601,1.693-0.627,3.549-0.082,5.215L32.041,37.163z"
				/>
		</g>
		<g>
			<path fill="#8C857C" d="M18.444,45.9h-6.553v-6.361h6.553V45.9z M12.765,45.026h4.833v-4.642h-4.833V45.026z"/>
		</g>
		<g>
			<path fill="#8C857C" d="M27.809,45.9h-6.553v-6.361h6.553V45.9z M22.103,45.026h4.833v-4.642h-4.833V45.026z"/>
		</g>
		<g>
			<path fill="#8C857C" d="M32.068,45.9h-1.475v-6.361h2.649l0.956,1.829l-0.137,0.219c-0.792,1.283-1.447,2.62-1.938,4.04
				L32.068,45.9z M31.468,40.413v4.613c0.464-1.283,1.065-2.512,1.775-3.686l-0.492-0.928H31.468z"/>
		</g>
	</g>
	<g>
		<g>
			<path fill="#8C857C" d="M70.266,70.992H64.75l-3.796-3.822l0.41-0.301c1.447-1.01,2.758-2.239,3.85-3.632l0.41-0.519
				L70.266,70.992z M65.105,70.146h3.658l-3.276-5.843c-0.956,1.119-2.021,2.13-3.194,3.004L65.105,70.146z"/>
		</g>
	</g>
	<g>
		<path fill="#8C857C" d="M34.935,40.248l-1.475-2.813c-1.829-3.467-0.518-7.78,2.949-9.61l1.556-0.819
			c1.01-0.546,2.184-0.819,3.33-0.819c2.649,0,5.052,1.447,6.308,3.796l1.475,2.812L34.935,40.248z M41.27,27.034
			c-1.01,0-2.021,0.245-2.921,0.737l-1.557,0.819c-3.059,1.611-4.205,5.406-2.594,8.436l1.065,2.048l12.585-6.662l-1.063-2.048
			C45.721,28.317,43.591,27.034,41.27,27.034z"/>
	</g>
	<g>
		<path fill="#8C857C" d="M67.234,40.248l-14.115-7.48l1.475-2.813c1.229-2.348,3.658-3.795,6.279-3.795
			c1.146,0,2.294,0.273,3.331,0.819l1.557,0.819c1.692,0.901,2.921,2.375,3.467,4.204s0.383,3.741-0.519,5.433L67.234,40.248z
			 M54.266,32.413l12.587,6.662l1.064-2.048c0.792-1.474,0.929-3.167,0.438-4.75c-0.492-1.584-1.584-2.894-3.059-3.686l-1.556-0.819
			c-0.901-0.464-1.911-0.737-2.922-0.737c-2.321,0-4.45,1.283-5.542,3.331L54.266,32.413z"/>
	</g>
	<g>
		<path fill="#E3E983" d="M55.631,31.976l0.602-1.147c0.899-1.72,2.675-2.785,4.641-2.785c0.847,0,1.693,0.218,2.458,0.6
			l1.556,0.819c1.229,0.656,2.156,1.748,2.566,3.085c0.409,1.338,0.272,2.758-0.382,3.987l-0.601,1.146L55.631,31.976z"/>
	</g>
	<g>
		<path fill="#8C857C" d="M51.891,34.133h-1.829v-4.095h-2.239v-2.73h6.307v2.73h-2.238V34.133L51.891,34.133z M50.908,33.286h0.108
			v-4.095h2.238v-1.01h-4.587v1.01h2.24V33.286L50.908,33.286z"/>
	</g>
	<g>
		<rect x="39.959" y="22.092" fill="#8C857C" width="1.774" height="0.738"/>
	</g>
	<g>
		<rect x="44.737" y="22.092" fill="#8C857C" width="1.774" height="0.738"/>
	</g>
	<g>
		<circle fill="#FFD552" cx="51.071" cy="52.152" r="11.768"/>
	</g>
	<g>
		<path fill="#DFF0FB" d="M51.071,54.036c-1.038,0-1.884-0.846-1.884-1.883c0-1.038,0.846-1.885,1.884-1.885
			c1.037,0,1.885,0.847,1.885,1.885C52.982,53.19,52.137,54.036,51.071,54.036z M51.071,51.115c-0.573,0-1.038,0.464-1.038,1.038
			c0,0.572,0.465,1.037,1.038,1.037s1.037-0.465,1.037-1.037C52.108,51.579,51.645,51.115,51.071,51.115z"/>
	</g>
	<g>
		<path fill="#8C857C" d="M37.529,71.019c-0.056,0-0.137,0-0.191,0h-0.055h-4.996l4.068-7.043c-2.212-2.758-3.577-6.007-4.014-9.42
			c-0.683-5.516,1.065-11.003,4.75-15.044c3.577-3.932,8.655-6.198,13.979-6.198c2.567,0,5.161,0.546,7.481,1.556
			c4.805,2.075,8.545,6.089,10.293,11.003c1.802,5.023,1.311,10.812-1.283,15.48c-2.539,4.588-6.936,7.918-11.986,9.175
			c-1.474,0.354-3.004,0.546-4.532,0.546l0,0c-1.529,0-3.03-0.192-4.478-0.546c-1.721-0.438-3.331-1.065-4.805-1.911
			c-0.355-0.192-0.656-0.383-0.956-0.574l-2.867,2.895C37.803,71.019,37.584,71.019,37.529,71.019z M33.789,70.146h3.495
			c0.027,0,0.082,0,0.109,0h0.027l2.948-2.949c0.028-0.055,0.165-0.19,0.382-0.19h0.192l0.108,0.109
			c0.328,0.218,0.711,0.464,1.146,0.709c1.394,0.793,2.922,1.394,4.588,1.829c1.364,0.355,2.812,0.52,4.259,0.52l0,0
			c1.446,0,2.922-0.164,4.313-0.52c4.833-1.173,9.01-4.368,11.44-8.736c2.484-4.45,2.921-9.966,1.229-14.771
			c-1.666-4.696-5.241-8.519-9.829-10.484c-2.238-0.956-4.695-1.475-7.153-1.475c-5.078,0-9.938,2.156-13.323,5.897
			c-3.522,3.877-5.161,9.119-4.533,14.361c0.41,3.276,1.748,6.416,3.877,9.064c0.246,0.301,0.246,0.52,0.082,0.818
			c0,0.028-0.026,0.056-0.055,0.083L33.789,70.146z M51.071,66.023c-5.406,0-10.348-3.168-12.614-8.082
			c-2.266-4.915-1.365-10.922,2.212-14.989c2.621-2.977,6.443-4.669,10.456-4.669c1.394,0,2.786,0.219,4.124,0.628
			c5.133,1.61,8.9,6.089,9.583,11.413c0.71,5.405-1.83,10.729-6.443,13.596C56.204,65.285,53.665,66.023,51.071,66.023z
			 M51.153,39.156c-3.769,0-7.344,1.611-9.802,4.396c-3.358,3.795-4.205,9.446-2.075,14.061c2.13,4.588,6.771,7.563,11.822,7.563
			c2.43,0,4.805-0.683,6.853-1.966c4.342-2.704,6.689-7.699,6.034-12.751c-0.654-4.914-4.26-9.229-8.982-10.703
			C53.747,39.348,52.464,39.156,51.153,39.156z"/>
	</g>
	<g>
		<path fill="#8C857C" d="M51.071,70.992c-0.245,0-0.492,0-0.737-0.027c-0.108,0-0.245,0-0.355-0.027
			c-0.409-0.027-0.765-0.056-1.092-0.082c-0.108,0-0.219-0.027-0.327-0.027c-0.109-0.027-0.219-0.027-0.355-0.055
			c-0.163-0.027-0.3-0.055-0.464-0.082l-0.327-0.055c-0.082-0.027-0.191-0.027-0.273-0.054c-0.219-0.055-0.464-0.11-0.683-0.165
			c-0.109-0.026-0.219-0.054-0.354-0.082c-0.109-0.026-0.219-0.054-0.328-0.081c-0.136-0.056-0.301-0.082-0.437-0.137
			c-0.109-0.027-0.219-0.055-0.328-0.109c-0.19-0.055-0.382-0.137-0.573-0.191c-0.218-0.082-0.437-0.164-0.627-0.245
			c-0.329-0.136-0.656-0.272-0.956-0.437c-0.137-0.055-0.273-0.137-0.383-0.191c-0.137-0.055-0.273-0.137-0.409-0.219
			c-0.246-0.137-0.465-0.245-0.683-0.382c-0.164-0.082-0.3-0.191-0.465-0.301c-0.108-0.082-0.245-0.164-0.354-0.219l0,0
			l-0.109-0.054l-0.027-0.028c-1.447-0.982-2.73-2.156-3.85-3.494l-0.027-0.055c-0.082-0.109-0.164-0.218-0.246-0.328
			c-0.055-0.082-0.137-0.19-0.218-0.272l-0.028-0.027c-0.054-0.082-0.108-0.136-0.164-0.218l-0.327-0.464
			c-0.083-0.11-0.137-0.219-0.219-0.301c-0.082-0.109-0.137-0.219-0.218-0.328l-0.219-0.327c-0.136-0.219-0.273-0.465-0.409-0.683
			c-0.055-0.109-0.137-0.246-0.191-0.355l-0.055-0.082c-0.054-0.082-0.082-0.19-0.136-0.272l-0.137-0.301
			c-0.137-0.273-0.246-0.546-0.354-0.792c-0.109-0.301-0.219-0.546-0.301-0.765c-0.109-0.272-0.191-0.546-0.273-0.791l-0.082-0.273
			c-0.082-0.301-0.191-0.628-0.273-0.983l-0.055-0.299c-0.055-0.273-0.109-0.547-0.164-0.819c-0.055-0.301-0.109-0.574-0.137-0.875
			l-0.054-0.436c0-0.11-0.027-0.191-0.027-0.301c-0.028-0.273-0.055-0.547-0.055-0.846v-0.247c0-0.082,0-0.163,0-0.245
			c0-0.137,0-0.273,0-0.409c0-10.403,8.464-18.867,18.867-18.867s18.866,8.464,18.866,18.867
			C69.938,62.555,61.474,70.992,51.071,70.992z M41.105,67.115c0.082,0.055,0.19,0.108,0.273,0.191
			c0.136,0.108,0.301,0.19,0.437,0.272c0.219,0.137,0.437,0.245,0.655,0.382c0.137,0.082,0.272,0.137,0.409,0.219
			c0.137,0.055,0.247,0.137,0.383,0.19c0.3,0.137,0.601,0.273,0.9,0.41c0.192,0.082,0.409,0.164,0.602,0.246
			c0.191,0.081,0.354,0.137,0.519,0.191c0.108,0.026,0.219,0.082,0.301,0.108c0.137,0.055,0.272,0.082,0.409,0.137
			c0.109,0.027,0.218,0.054,0.327,0.082c0.109,0.027,0.219,0.055,0.328,0.082c0.219,0.055,0.438,0.108,0.654,0.163
			c0.082,0.027,0.192,0.027,0.273,0.056l0.301,0.055c0.137,0.026,0.272,0.054,0.438,0.082c0.108,0.026,0.217,0.026,0.327,0.054
			c0.108,0.027,0.219,0.027,0.327,0.027c0.327,0.027,0.655,0.082,1.038,0.082c0.108,0,0.219,0.027,0.327,0.027
			c0.245,0,0.464,0.026,0.71,0.026c9.938,0,17.993-8.081,17.993-17.992s-8.083-17.992-17.993-17.992
			c-9.938,0-17.993,8.081-17.993,17.992c0,0.137,0,0.273,0,0.41c0,0.082,0,0.164,0,0.219v0.245c0.027,0.272,0.027,0.546,0.055,0.792
			c0,0.081,0.027,0.191,0.027,0.273l0.054,0.437c0.028,0.272,0.082,0.546,0.137,0.818c0.055,0.247,0.109,0.52,0.164,0.765
			l0.055,0.273c0.082,0.355,0.164,0.654,0.246,0.928l0.082,0.273c0.082,0.219,0.164,0.465,0.246,0.737
			c0.082,0.218,0.164,0.437,0.273,0.71c0.109,0.246,0.218,0.52,0.328,0.765l0.137,0.301c0.054,0.081,0.082,0.163,0.137,0.245
			l0.054,0.082c0.054,0.108,0.109,0.219,0.191,0.327c0.109,0.219,0.246,0.438,0.382,0.655l0.219,0.328
			c0.054,0.109,0.136,0.218,0.191,0.3c0.082,0.11,0.136,0.219,0.218,0.301l0.3,0.409c0.055,0.055,0.109,0.137,0.164,0.191
			l0.027,0.027c0.083,0.081,0.137,0.191,0.219,0.273c0.083,0.108,0.165,0.19,0.218,0.272l0.027,0.027
			c1.065,1.283,2.294,2.402,3.659,3.358h0.137L41.105,67.115z M51.071,66.023c-7.646,0-13.87-6.226-13.87-13.87
			c0-7.646,6.225-13.87,13.87-13.87c7.645,0,13.87,6.225,13.87,13.87C64.941,59.798,58.716,66.023,51.071,66.023z M51.071,39.13
			c-7.181,0-12.996,5.842-12.996,12.995s5.843,12.997,12.996,12.997c7.181,0,13.023-5.844,13.023-12.997S58.252,39.13,51.071,39.13z
			"/>
	</g>
	<g>
		<rect x="50.635" y="41.695" fill="#DFF0FB" width="0.874" height="8.982"/>
	</g>
	<g>
		
			<rect x="47.631" y="52.626" transform="matrix(-0.7171 -0.697 0.697 -0.7171 43.7545 129.0465)" fill="#DFF0FB" width="0.874" height="6.033"/>
	</g>
</g>
</svg>
