<?xml version="1.0" encoding="utf-8"?>
<!-- Generator: Adobe Illustrator 16.0.0, SVG Export Plug-In . SVG Version: 6.00 Build 0)  -->
<!DOCTYPE svg PUBLIC "-//W3C//DTD SVG 1.1//EN" "http://www.w3.org/Graphics/SVG/1.1/DTD/svg11.dtd">
<svg version="1.1" id="Layer_1" xmlns="http://www.w3.org/2000/svg" xmlns:xlink="http://www.w3.org/1999/xlink" x="0px" y="0px"
	 width="72px" height="72px" viewBox="0 0 72 72" enable-background="new 0 0 72 72" xml:space="preserve">
<path fill="#FFFFFF" d="M58.334,61.832c0,2.209-1.791,4-4,4h-38c-2.209,0-4-1.791-4-4V12.999c0-2.209,1.791-4,4-4h38
	c2.209,0,4,1.791,4,4V61.832z"/>
<path fill="#C2C9D0" d="M55.401,64.785H14.288c-1.248,0-2.259-1.012-2.259-2.259V11.474c0-1.248,1.011-2.259,2.259-2.259h41.113
	c1.248,0,2.259,1.012,2.259,2.259v51.052C57.66,63.773,56.649,64.785,55.401,64.785z"/>
<circle fill="#E3E984" cx="34.845" cy="24.576" r="9.262"/>
<path fill="#FDCDAD" d="M37.781,23.39v0.734c0,1.622-1.315,2.937-2.937,2.937l0,0l0,0c-1.622,0-2.937-1.315-2.937-2.937V23.39
	c0-1.622,1.315-2.937,2.937-2.937l0,0C36.466,20.453,37.781,21.768,37.781,23.39z"/>
<path fill="#A9DCF6" d="M34.845,27.061L34.845,27.061c-2.867,0-5.316,1.781-6.306,4.296c1.654,1.539,3.869,2.481,6.306,2.481
	c2.437,0,4.652-0.942,6.306-2.481C40.16,28.841,37.711,27.061,34.845,27.061z"/>
<path fill="#FDBB54" d="M60.208,26.224l0.646-1.118c0.998-1.729,3.208-2.321,4.937-1.323l0,0c1.729,0.998,2.321,3.208,1.323,4.938
	L52.901,53.338l-6.261-3.614l6.131-10.618L60.208,26.224z"/>
<path fill="#E3E984" d="M65.791,23.783L65.791,23.783c-1.729-0.998-3.938-0.406-4.937,1.323l-1.679,2.907l6.261,3.614l1.678-2.907
	C68.113,26.992,67.521,24.781,65.791,23.783z"/>
<polygon fill="#A1D6F4" points="52.901,53.338 45.641,58.686 46.641,49.724 "/>
<path fill="#B8B8B8" d="M57.66,53.075c-0.624,0-1.13,0.506-1.13,1.13v8.321c0,0.622-0.507,1.129-1.129,1.129H14.288
	c-0.623,0-1.129-0.507-1.129-1.129V11.474c0-0.623,0.507-1.13,1.129-1.13h41.113c0.622,0,1.129,0.507,1.129,1.13v12.283
	c0,0.624,0.506,1.129,1.13,1.129c0.623,0,1.129-0.505,1.129-1.129V11.474c0-1.869-1.52-3.389-3.388-3.389H14.288
	c-1.868,0-3.388,1.52-3.388,3.389v51.052c0,1.868,1.52,3.388,3.388,3.388h41.113c1.868,0,3.388-1.52,3.388-3.388v-8.321
	C58.789,53.581,58.283,53.075,57.66,53.075z"/>
<path fill="#010101" d="M45.235,24.576c0-5.729-4.661-10.391-10.391-10.391c-5.73,0-10.391,4.662-10.391,10.391
	c0,2.973,1.255,5.657,3.262,7.553c0.038,0.041,0.078,0.079,0.121,0.113c1.849,1.692,4.31,2.726,7.008,2.726
	c2.697,0,5.158-1.034,7.007-2.726c0.044-0.034,0.084-0.073,0.122-0.113C43.98,30.232,45.235,27.548,45.235,24.576z M34.845,16.443
	c4.484,0,8.132,3.648,8.132,8.132c0,1.803-0.591,3.471-1.588,4.821c-0.833-1.235-1.987-2.196-3.328-2.79
	c0.532-0.688,0.851-1.549,0.851-2.483V23.39c0-2.242-1.824-4.066-4.066-4.066s-4.066,1.824-4.066,4.066v0.734
	c0,0.935,0.318,1.796,0.85,2.483c-1.34,0.593-2.495,1.554-3.328,2.79c-0.997-1.351-1.588-3.018-1.588-4.821
	C26.712,20.092,30.36,16.443,34.845,16.443z M33.038,24.124V23.39c0-0.996,0.811-1.807,1.807-1.807s1.807,0.811,1.807,1.807v0.734
	c0,0.997-0.811,1.807-1.807,1.807S33.038,25.121,33.038,24.124z M29.933,31.051c0.993-1.76,2.845-2.861,4.912-2.861
	c2.067,0,3.919,1.101,4.911,2.861c-1.364,1.039-3.067,1.657-4.911,1.657C33,32.708,31.298,32.09,29.933,31.051z"/>
<path fill="#010101" d="M40.943,57.557h-6.099c-0.624,0-1.129,0.505-1.129,1.129c0,0.625,0.506,1.13,1.129,1.13h6.099
	c0.624,0,1.13-0.505,1.13-1.13C42.073,58.062,41.567,57.557,40.943,57.557z"/>
<path fill="#010101" d="M40.943,51.231H24.905c-0.624,0-1.129,0.505-1.129,1.13c0,0.624,0.506,1.129,1.129,1.129h16.038
	c0.624,0,1.13-0.505,1.13-1.129C42.073,51.736,41.567,51.231,40.943,51.231z"/>
<path fill="#010101" d="M40.943,44.906H24.905c-0.624,0-1.129,0.505-1.129,1.13c0,0.624,0.506,1.129,1.129,1.129h16.038
	c0.624,0,1.13-0.505,1.13-1.129C42.073,45.411,41.567,44.906,40.943,44.906z"/>
<path fill="#010101" d="M20.879,38.912c-0.209-0.21-0.501-0.331-0.799-0.331c-0.297,0-0.588,0.121-0.799,0.331
	c-0.209,0.21-0.331,0.502-0.331,0.799c0,0.296,0.121,0.588,0.331,0.798c0.211,0.211,0.502,0.331,0.799,0.331
	c0.298,0,0.588-0.12,0.799-0.331c0.21-0.21,0.332-0.502,0.332-0.798C21.211,39.414,21.09,39.122,20.879,38.912z"/>
<path fill="#010101" d="M20.879,45.237c-0.211-0.21-0.501-0.331-0.799-0.331c-0.297,0-0.587,0.121-0.799,0.331
	c-0.209,0.21-0.331,0.502-0.331,0.799c0,0.296,0.121,0.588,0.331,0.798c0.211,0.211,0.502,0.331,0.799,0.331
	c0.298,0,0.588-0.12,0.799-0.331c0.21-0.21,0.332-0.502,0.332-0.798C21.211,45.739,21.09,45.447,20.879,45.237z"/>
<path fill="#010101" d="M20.08,51.231c-0.297,0-0.587,0.121-0.799,0.331c-0.209,0.21-0.331,0.502-0.331,0.799
	c0,0.296,0.121,0.588,0.331,0.798c0.21,0.21,0.502,0.331,0.799,0.331c0.298,0,0.59-0.121,0.799-0.331
	c0.21-0.21,0.332-0.502,0.332-0.798c0-0.297-0.121-0.589-0.332-0.799C20.668,51.353,20.378,51.231,20.08,51.231z"/>
<path fill="#010101" d="M40.943,38.581H24.905c-0.624,0-1.129,0.505-1.129,1.13c0,0.624,0.506,1.129,1.129,1.129h16.038
	c0.624,0,1.13-0.505,1.13-1.129C42.073,39.086,41.567,38.581,40.943,38.581z"/>
<path fill="#010101" d="M66.356,22.805c-1.097-0.633-2.375-0.802-3.6-0.474c-1.225,0.328-2.247,1.113-2.881,2.21L45.663,49.159
	c-0.078,0.135-0.127,0.285-0.145,0.44l-1,8.961c-0.051,0.446,0.169,0.879,0.558,1.104c0.175,0.102,0.37,0.151,0.563,0.151
	c0.237,0,0.473-0.074,0.67-0.22l7.262-5.348c0.125-0.093,0.23-0.21,0.308-0.345l14.214-24.618
	C69.401,27.02,68.621,24.113,66.356,22.805z M47.571,51.565l3.27,1.888l-3.792,2.793L47.571,51.565z M52.487,51.796l-4.303-2.484
	L59.59,29.555l4.304,2.485L52.487,51.796z M66.137,28.156l-1.114,1.928l-4.304-2.485l1.113-1.928
	c0.332-0.575,0.868-0.986,1.509-1.158c0.642-0.172,1.312-0.084,1.886,0.248c0.575,0.332,0.986,0.868,1.158,1.509
	C66.556,26.911,66.469,27.581,66.137,28.156z"/>
</svg>
