<?xml version="1.0" encoding="utf-8"?>
<!-- Generator: Adobe Illustrator 16.0.0, SVG Export Plug-In . SVG Version: 6.00 Build 0)  -->
<!DOCTYPE svg PUBLIC "-//W3C//DTD SVG 1.1//EN" "http://www.w3.org/Graphics/SVG/1.1/DTD/svg11.dtd">
<svg version="1.1" id="Layer_1" xmlns="http://www.w3.org/2000/svg" xmlns:xlink="http://www.w3.org/1999/xlink" x="0px" y="0px"
	 width="72px" height="72px" viewBox="0 0 72 72" enable-background="new 0 0 72 72" xml:space="preserve">
<g>
	<g id="filled_outline_33_">
		<path fill="#FAF5B2" d="M63.325,53.545L51.658,41.878l-0.489,0.489c-0.811,0.811-2.124,0.811-2.935,0
			c-0.81-0.81-0.81-2.124,0-2.934l0,0l0.489-0.489l-2.935-2.934l-9.78,9.781l2.934,2.934l0.489-0.489c0.81-0.81,2.124-0.81,2.935,0
			c0.809,0.811,0.809,2.125,0,2.935l-0.489,0.489l11.666,11.666c0.354,0.352,0.745,0.663,1.165,0.93l9.546-9.545
			C63.987,54.29,63.676,53.898,63.325,53.545z"/>
		<path fill="#2A4F9E" d="M64.255,54.71l-9.546,9.545c3.21,2.063,7.483,1.133,9.546-2.078C65.716,59.903,65.716,56.985,64.255,54.71
			z"/>
		<polygon fill="#C2C9D0" points="20.361,16.45 19.383,12.538 12.537,8.625 8.625,12.538 12.537,19.384 16.449,20.362 
			38.943,42.856 42.855,38.944 		"/>
		<path fill="#FAF5B2" d="M65.02,16.78l-6.515,6.516l-5.869-1.956l-1.956-5.868l6.516-6.516c-5.733-1.463-11.566,1.999-13.028,7.732
			c-0.444,1.738-0.444,3.559,0,5.297L21.984,44.167c-5.792-1.471-11.678,2.032-13.148,7.824C7.366,57.783,10.868,63.67,16.66,65.14
			c5.792,1.471,11.679-2.032,13.148-7.824c0.443-1.746,0.443-3.577,0-5.324L51.991,29.81c5.736,1.459,11.569-2.009,13.028-7.746
			C65.461,20.331,65.461,18.515,65.02,16.78z M22.317,59.483h-5.868l-2.935-4.891l2.935-4.891h5.868l2.935,4.891L22.317,59.483z"/>
		<path fill="#2A4F9E" d="M65.351,58.436c-0.001-1.321-0.382-2.614-1.096-3.726l-2.817,2.816v7.132
			C63.828,63.507,65.35,61.089,65.351,58.436z"/>
		<path fill="#E0E0DF" d="M7.776,13.027l3.912,6.846c0.132,0.232,0.353,0.399,0.611,0.463l3.65,0.913l12.519,12.519l1.383-1.383
			L17.137,19.67c-0.125-0.125-0.282-0.214-0.454-0.257l-3.507-0.88l-3.332-5.832L12.7,9.846l5.835,3.334l0.88,3.507
			c0.043,0.172,0.132,0.33,0.257,0.455l12.714,12.714l1.383-1.383L21.251,15.954l-0.913-3.648c-0.064-0.259-0.231-0.48-0.463-0.612
			l-6.846-3.913c-0.382-0.217-0.862-0.153-1.173,0.158l-3.912,3.912C7.628,12.16,7.56,12.643,7.776,13.027z"/>
		
			<rect x="21.773" y="36.01" transform="matrix(-0.7071 0.7071 -0.7071 -0.7071 89.2962 36.9878)" fill="#996936" width="30.429" height="1.957"/>
		<path fill="#996936" d="M23.155,49.199c-0.177-0.295-0.495-0.475-0.838-0.475h-5.868c-0.344,0-0.662,0.18-0.838,0.475l-2.934,4.89
			c-0.186,0.31-0.186,0.698,0,1.008l2.934,4.891c0.177,0.294,0.495,0.474,0.838,0.474h5.868c0.344,0,0.661-0.18,0.838-0.474
			l2.934-4.891c0.186-0.31,0.186-0.698,0-1.008L23.155,49.199z M21.764,58.505h-4.761l-2.347-3.912l2.347-3.912h4.761l2.347,3.912
			L21.764,58.505z"/>
		<path fill="#C0BBAE" d="M54.592,31.12c6.46,0.021,11.714-5.197,11.735-11.657c0.003-0.983-0.118-1.963-0.359-2.916
			c-0.13-0.524-0.661-0.843-1.186-0.712c-0.172,0.043-0.329,0.132-0.454,0.257l-6.088,6.084l-4.83-1.61l-1.612-4.83l6.089-6.089
			c0.381-0.382,0.381-1.001-0.001-1.382c-0.127-0.126-0.284-0.216-0.458-0.259c-6.264-1.586-12.627,2.206-14.214,8.47
			c-0.241,0.951-0.361,1.928-0.358,2.908c0.002,0.77,0.082,1.538,0.237,2.292L21.675,43.095c-0.754-0.156-1.522-0.235-2.292-0.238
			c-6.481,0-11.736,5.255-11.736,11.736s5.255,11.736,11.736,11.736c6.481,0,11.737-5.255,11.737-11.736
			c-0.002-0.77-0.083-1.537-0.238-2.291l5.127-5.128l2.243,2.242c0.381,0.382,1.002,0.382,1.383,0l0.489-0.489
			c0.429-0.426,1.122-0.426,1.551,0c0.429,0.428,0.43,1.121,0.003,1.55c-0.002,0.001-0.002,0.001-0.003,0.001l-0.488,0.489
			c-0.382,0.382-0.382,1.002,0,1.384l11.666,11.667c3.069,3.097,8.067,3.118,11.164,0.051c3.096-3.07,3.118-8.067,0.051-11.163
			c-0.018-0.017-0.033-0.034-0.051-0.051L52.35,41.187c-0.382-0.381-1.002-0.381-1.383,0l-0.489,0.489
			c-0.43,0.427-1.122,0.427-1.552,0c-0.428-0.427-0.429-1.12-0.001-1.549c0-0.001,0-0.001,0.001-0.002l0.49-0.489
			c0.38-0.382,0.38-1.002,0-1.383l-2.243-2.243l5.127-5.127C53.055,31.038,53.822,31.118,54.592,31.12z M58.435,64.373
			c-0.711-0.002-1.415-0.129-2.08-0.379l7.638-7.639c1.153,3.066-0.397,6.485-3.464,7.639
			C59.858,64.245,59.149,64.374,58.435,64.373z M47.354,38.954c-1.083,1.292-0.914,3.218,0.379,4.3
			c1.135,0.952,2.79,0.951,3.925-0.002l10.975,10.984c0.12,0.119,0.231,0.246,0.339,0.374l-8.362,8.362
			c-0.128-0.107-0.254-0.219-0.373-0.339L43.252,51.648c1.082-1.292,0.913-3.217-0.379-4.3c-1.135-0.951-2.79-0.951-3.925,0.003
			l-1.564-1.565l8.405-8.393L47.354,38.954z M51.304,29.117L29.117,51.3c-0.244,0.242-0.341,0.596-0.258,0.929
			c1.342,5.27-1.843,10.63-7.113,11.971c-5.269,1.341-10.629-1.843-11.971-7.112c-1.342-5.269,1.843-10.629,7.112-11.971
			c1.595-0.405,3.265-0.405,4.859,0c0.334,0.082,0.686-0.017,0.93-0.258l22.181-22.182c0.242-0.243,0.341-0.596,0.257-0.93
			c-1.333-5.208,1.809-10.51,7.017-11.842c0.984-0.252,2.002-0.348,3.017-0.285l-5.159,5.161c-0.262,0.262-0.354,0.649-0.236,1.001
			l1.955,5.868c0.099,0.292,0.327,0.521,0.62,0.618l5.867,1.956c0.352,0.118,0.738,0.026,1.001-0.236l5.158-5.159
			c0.013,0.187,0.018,0.371,0.018,0.555c0.028,5.374-4.306,9.753-9.68,9.78c-0.831,0.004-1.659-0.098-2.463-0.304
			c-0.335-0.083-0.687,0.015-0.93,0.257H51.304z"/>
		
			<rect x="51.656" y="45.722" transform="matrix(-0.7069 0.7074 -0.7074 -0.7069 127.0716 52.6133)" fill="#996936" width="1.955" height="13.831"/>
	</g>
</g>
</svg>
