<?xml version="1.0" encoding="utf-8"?>
<!-- Generator: Adobe Illustrator 16.0.0, SVG Export Plug-In . SVG Version: 6.00 Build 0)  -->
<!DOCTYPE svg PUBLIC "-//W3C//DTD SVG 1.1//EN" "http://www.w3.org/Graphics/SVG/1.1/DTD/svg11.dtd">
<svg version="1.1" id="Layer_1" xmlns="http://www.w3.org/2000/svg" xmlns:xlink="http://www.w3.org/1999/xlink" x="0px" y="0px"
	 width="252px" height="252px" viewBox="0 0 252 252" enable-background="new 0 0 252 252" xml:space="preserve">
<g>
	<path fill="#E0E1E0" d="M225.807,75.45v63.361l-9.217-3.073c-0.957-1.624-1.73-3.351-2.305-5.146
		c-1.113-2.611-2.303-5.222-3.531-5.222h-0.308V75.45c0.007-8.068-4.221-15.546-11.136-19.7l-2.766-9.869
		c0.109-0.348,0.162-0.712,0.153-1.076l1.075-0.844l4.763-3.802C216.639,46.226,225.785,60.097,225.807,75.45z"/>
	<path fill="#9E9E9E" d="M214.285,75.45v55.142c-1.113-2.611-2.303-5.222-3.531-5.222h-0.308V75.45
		c0.007-8.068-4.221-15.546-11.136-19.7l-2.766-9.869c0.109-0.348,0.162-0.712,0.153-1.076l1.075-0.844
		C208.115,51.107,214.289,62.878,214.285,75.45z"/>
	<path fill="#E0E1E0" d="M144.926,165.209c4.379-8.41,50.544-30.623,49.584-39.839h16.244c2.241,0.011,4.369,0.992,5.836,2.688
		l9.217,10.753l9.676,11.288c0.541,0.647,0.982,1.371,1.307,2.149L144.926,165.209z"/>
	<path fill="#E0E1E0" d="M167.246,168.09l-50.887-15.842c-0.58-0.833-1.301-1.561-2.129-2.149l-19.302-22.041
		c-2.835-1.827-6.152-2.762-9.524-2.688h41.537l21.104,5.759l23.041-3.119l14.16,17.039L167.246,168.09z"/>
	<path fill="#E0E1E0" d="M122.125,155.091l5.76,81.638H14.606v-81.638c-0.005-1.831,0.649-3.604,1.842-4.992l18.893-22.041
		c1.466-1.696,3.595-2.677,5.837-2.688h19.507v23.04h-7.68c-2.118,0.005-3.833,1.722-3.841,3.839v15.361
		c0,4.073,1.617,7.98,4.499,10.862c2.881,2.881,6.789,4.498,10.861,4.498h7.682c4.073,0,7.98-1.617,10.861-4.498
		c2.881-2.882,4.499-6.789,4.499-10.862v-15.361c-0.007-2.117-1.723-3.834-3.841-3.839h-7.68v-23.04h19.508
		c2.241,0.011,4.37,0.992,5.836,2.688l18.893,22.041c0.542,0.647,0.982,1.371,1.306,2.149
		C121.944,153.154,122.125,154.119,122.125,155.091z"/>
	<path fill="#E0E1E0" d="M181.146,37.048l2.535,4.263c-0.077,0.346,1.766,0.691,1.766,1.037l-5.875,10.062H99.085
		c-12.72,0.009-23.029,10.318-23.04,23.04v78.72H60.686V75.45c0.035-21.194,17.207-38.366,38.399-38.401H181.146z"/>
	<path fill="#284E9F" d="M160.68,125.714L148.007,74.49c-0.241-0.99-0.868-1.842-1.74-2.368c-0.872-0.527-1.917-0.684-2.905-0.436
		l-29.837,7.373c-0.99,0.241-1.844,0.866-2.37,1.738c-0.527,0.874-0.682,1.919-0.434,2.907l4.609,18.624l1.842,7.45l1.844,7.45
		l0.921,3.764l0.923,3.725l0.153,0.654l1.689,6.796l0.921,3.725l0.923,3.725l1.842,7.449l0.923,3.725h0.037l0.346,1.459h39.553
		L160.68,125.714z M133.032,93.996c-2.059,0.51-4.138-0.745-4.647-2.804c-0.508-2.057,0.746-4.136,2.803-4.646
		c2.057-0.508,4.139,0.747,4.646,2.804c0.254,0.988,0.099,2.035-0.429,2.909C134.878,93.133,134.023,93.759,133.032,93.996z"/>
	<path fill="#284E9F" d="M194.549,71.34l-3.533,22.772l-7.537,4.581l-7.67-6.963l3.533-22.771l7.664-2.639L194.549,71.34z"/>
	<path fill="#425E8E" d="M196.545,99.834c-3.84,8.024-2.994,16.741-2.035,25.536c0.96,9.216,2.035,18.469-2.344,26.878h-24.92
		l-6.566-26.534c4.07-9.83,9.563-19.468,8.104-30.182c-0.155-1.081,0.199-2.173,0.959-2.957c0.891-0.96,2.197-1.419,3.494-1.229
		l2.572,0.383l15.207,2.382l2.535,0.383c1.188,0.168,2.229,0.88,2.816,1.928C196.955,97.47,197.02,98.732,196.545,99.834z"/>
	<path fill="#284E9F" d="M185.025,99.834c-3.84,8.024-2.996,16.741-2.036,25.536c0.96,9.216,2.036,18.469-2.341,26.878h-13.402
		l-6.566-26.534c4.07-9.83,9.563-19.468,8.104-30.182c-0.155-1.081,0.199-2.173,0.959-2.957l9.752,1.536l2.535,0.383
		c1.188,0.168,2.23,0.88,2.818,1.928C185.434,97.47,185.501,98.732,185.025,99.834z"/>
	<path fill="#284E9F" d="M87.566,152.248v15.361c0,4.073-1.617,7.98-4.499,10.862c-2.881,2.881-6.789,4.498-10.861,4.498h-7.682
		c-4.073,0-7.98-1.617-10.861-4.498c-2.881-2.882-4.499-6.789-4.499-10.862v-15.361c0.007-2.117,1.723-3.834,3.841-3.839h30.72
		C85.844,148.414,87.559,150.131,87.566,152.248z"/>
	<path fill="#E0E1E0" d="M237.324,155.091v81.638H122.125v-81.638c0-0.972-0.181-1.937-0.536-2.843h115.2
		C237.145,153.154,237.324,154.119,237.324,155.091z"/>
	<path fill="#E0E1E0" d="M225.807,155.091v81.638H122.125v-81.638c0-0.972-0.181-1.937-0.536-2.843h103.679
		C225.623,153.154,225.807,154.119,225.807,155.091z"/>
	<path fill="#E0E1E0" d="M202.766,21.536l-0.229,18.624l-0.077,4.646c0.008,0.364-0.045,0.728-0.153,1.076l-2.995,9.869
		l-4.762,15.59l-15.207-2.38l0.23-16.55l0.115-10.062c0.013-0.35,0.065-0.698,0.153-1.037l1.306-4.263l5.529-18.009
		c0.548-1.837,2.369-2.986,4.262-2.688l8.564,1.343C201.4,17.971,202.8,19.616,202.766,21.536z"/>
	<path fill="#FED6A9" d="M122.125,240.57H14.606c-2.122,0-3.841-1.72-3.841-3.842v-81.638c-0.003-2.751,0.981-5.412,2.774-7.501
		l18.886-22.032c2.192-2.552,5.388-4.023,8.754-4.029h19.507c2.12,0,3.839,1.719,3.839,3.841c0,2.121-1.719,3.839-3.839,3.839
		H41.179c-1.126,0.012-2.193,0.506-2.93,1.357l-18.884,22.031c-0.596,0.695-0.921,1.579-0.919,2.493v77.799h99.84v-77.799
		c0-0.492-0.091-0.981-0.272-1.438c-0.174-0.404-0.408-0.778-0.692-1.112l-18.847-21.983c-0.735-0.847-1.798-1.338-2.92-1.348
		H76.045c-2.12,0-3.839-1.719-3.839-3.839c0-2.122,1.719-3.841,3.839-3.841h19.508c3.359,0.005,6.553,1.471,8.744,4.02l18.9,22.051
		c0.815,0.967,1.475,2.053,1.957,3.223c0.536,1.359,0.812,2.808,0.812,4.269v81.638C125.966,238.851,124.247,240.57,122.125,240.57z
		"/>
	<path fill="#FED6A9" d="M237.324,240.57H122.125c-2.12,0-3.839-1.72-3.839-3.842c0-2.119,1.719-3.839,3.839-3.839h111.361v-77.799
		c0-0.492-0.092-0.981-0.273-1.438c-0.174-0.404-0.407-0.778-0.691-1.112l-18.848-21.983c-0.734-0.847-1.799-1.338-2.92-1.348
		H194.51c-2.121,0-3.841-1.719-3.841-3.839c0-2.122,1.72-3.841,3.841-3.841h15.937c3.463-0.063,6.776,1.41,9.053,4.02l18.899,22.051
		c0.814,0.967,1.475,2.053,1.955,3.223c0.536,1.359,0.813,2.808,0.813,4.269v81.638C241.166,238.851,239.447,240.57,237.324,240.57z
		"/>
	<path fill="#FED6A9" d="M121.012,129.209H76.045c-2.12,0-3.839-1.719-3.839-3.839c0-2.122,1.719-3.841,3.839-3.841h44.967
		c2.12,0,3.839,1.719,3.839,3.841C124.851,127.49,123.132,129.209,121.012,129.209z"/>
	<path fill="#FED6A9" d="M60.686,129.209H41.179c-2.122,0-3.841-1.719-3.841-3.839c0-2.122,1.719-3.841,3.841-3.841h19.507
		c2.12,0,3.839,1.719,3.839,3.841C64.525,127.49,62.806,129.209,60.686,129.209z"/>
	<path fill="#FED6A9" d="M236.789,156.09h-115.2c-2.122,0-3.841-1.72-3.841-3.842c0-2.119,1.719-3.839,3.841-3.839h115.2
		c2.119,0,3.839,1.72,3.839,3.839C240.628,154.37,238.908,156.09,236.789,156.09z"/>
	<path fill="#FED6A9" d="M225.807,142.648c-2.123,0-3.842-1.719-3.842-3.838V75.45c0.002-13.825-8.238-26.32-20.947-31.762
		c-1.261-0.541-2.137-1.714-2.298-3.078c-0.159-1.362,0.419-2.707,1.517-3.528c1.102-0.821,2.555-0.993,3.814-0.45
		c15.531,6.653,25.598,21.923,25.594,38.818v63.361c0,1.018-0.404,1.994-1.123,2.713
		C227.801,142.244,226.824,142.648,225.807,142.648z"/>
	<path fill="#FED6A9" d="M210.446,129.209c-2.122,0-3.841-1.719-3.841-3.839V75.45c0.026-6.726-3.502-12.966-9.279-16.411
		c-1.801-1.102-2.371-3.451-1.281-5.257c1.09-1.807,3.434-2.396,5.248-1.317c8.09,4.825,13.029,13.565,12.992,22.985v49.92
		C214.285,127.49,212.566,129.209,210.446,129.209z"/>
	<path fill="#FED6A9" d="M60.686,152.248c-2.122,0-3.841-1.719-3.841-3.839V75.45c0.026-23.317,18.923-42.214,42.24-42.24h82.061
		c2.121,0,3.84,1.719,3.84,3.839c0,2.122-1.719,3.841-3.84,3.841H99.085C80.008,40.91,64.548,56.37,64.525,75.45v72.959
		C64.525,150.529,62.806,152.248,60.686,152.248z"/>
	<path fill="#FED6A9" d="M76.045,152.248c-2.12,0-3.839-1.719-3.839-3.839V75.45c0.016-14.839,12.041-26.865,26.879-26.88h80.487
		c2.121,0,3.84,1.719,3.84,3.841c0,2.12-1.719,3.839-3.84,3.839H99.085C88.487,56.261,79.899,64.85,79.886,75.45v72.959
		C79.886,150.529,78.167,152.248,76.045,152.248z"/>
	<path fill="#FFD552" d="M167.242,156.09c-1.764-0.002-3.303-1.207-3.725-2.918l-19.235-77.761l-29.837,7.375l16.471,66.584
		c0.07,0.172,0.127,0.35,0.168,0.531l0.347,1.459c0.345,1.344-0.063,2.77-1.067,3.729c-1.002,0.96-2.445,1.303-3.772,0.898
		c-1.329-0.404-2.334-1.494-2.631-2.852l-0.229-0.958c-0.06-0.15-0.109-0.308-0.147-0.466l-16.59-67.085
		c-1.013-4.124,1.51-8.288,5.634-9.302l29.812-7.369c1.929-0.501,3.98-0.211,5.693,0.807c1.787,1.042,3.08,2.758,3.592,4.762
		l19.248,77.801c0.285,1.147,0.025,2.36-0.705,3.291C169.54,155.548,168.424,156.091,167.242,156.09z"/>
	<path fill="#FFD552" d="M135.965,90.268c0,2.12-1.72,3.839-3.84,3.839c-2.121,0-3.841-1.719-3.841-3.839
		c0-2.122,1.72-3.841,3.841-3.841C134.245,86.427,135.965,88.146,135.965,90.268z"/>
	<path fill="#FFD552" d="M116.25,109.904c-1.941-0.001-3.574-1.452-3.808-3.376c-0.234-1.927,1.005-3.725,2.89-4.191l11.182-2.77
		c1.339-0.348,2.759,0.051,3.723,1.044s1.316,2.426,0.929,3.753c-0.389,1.327-1.461,2.343-2.809,2.658l-11.183,2.771
		C116.873,109.866,116.562,109.904,116.25,109.904z"/>
	<path fill="#FFD552" d="M119.943,124.814c-1.94-0.002-3.574-1.452-3.807-3.377c-0.234-1.927,1.005-3.725,2.888-4.19l11.183-2.771
		c2.049-0.48,4.1,0.777,4.605,2.818c0.505,2.041-0.728,4.11-2.764,4.639l-11.181,2.769
		C120.566,124.777,120.254,124.814,119.943,124.814z"/>
	<path fill="#FFD552" d="M123.633,139.725c-1.941-0.002-3.574-1.451-3.808-3.377c-0.234-1.927,1.005-3.725,2.888-4.191l11.183-2.768
		c1.334-0.338,2.748,0.064,3.703,1.055s1.309,2.416,0.926,3.738c-0.385,1.32-1.447,2.336-2.783,2.661l-11.183,2.769
		C124.257,139.688,123.946,139.725,123.633,139.725z"/>
	<path fill="#FED6A9" d="M127.324,154.634c-1.938-0.002-3.573-1.45-3.807-3.377s1.005-3.725,2.89-4.19l11.181-2.769
		c1.34-0.349,2.762,0.051,3.724,1.042c0.964,0.994,1.316,2.428,0.929,3.755c-0.389,1.325-1.461,2.342-2.809,2.658l-11.183,2.769
		C127.947,154.597,127.637,154.634,127.324,154.634z"/>
	<path fill="#FFD552" d="M194.535,75.174c-0.199,0-0.398-0.016-0.595-0.046l-15.175-2.364c-1.889-0.293-3.273-1.932-3.249-3.843
		l0.337-26.603c0.008-0.729,0.122-1.454,0.336-2.151l6.797-22.254c1.133-3.641,4.754-5.912,8.525-5.346l8.596,1.338
		c3.768,0.603,6.531,3.871,6.498,7.688l-0.293,23.27c-0.012,0.728-0.123,1.45-0.336,2.146l-7.773,25.444
		C197.711,74.068,196.223,75.172,194.535,75.174z M183.235,65.688l8.596,1.339l6.8-22.261v-0.011l0.295-23.259l-8.596-1.338
		l-6.796,22.256L183.235,65.688z"/>
	<path fill="#FFD552" d="M191.021,97.951c-0.198,0-0.397-0.016-0.595-0.045c-1.006-0.155-1.91-0.705-2.512-1.528
		c-0.601-0.822-0.85-1.849-0.693-2.856l2.945-18.979l-7.619-1.193l-2.943,18.972c-0.325,2.095-2.287,3.531-4.384,3.206
		c-2.095-0.325-3.532-2.289-3.206-4.384l3.533-22.771c0.156-1.007,0.708-1.911,1.531-2.514c0.82-0.603,1.851-0.853,2.857-0.691
		l15.207,2.38c2.094,0.329,3.524,2.289,3.201,4.382l-3.533,22.772C194.521,96.571,192.912,97.95,191.021,97.951z"/>
	<path fill="#FFD552" d="M192.165,156.09c-1.341-0.002-2.584-0.702-3.28-1.85c-0.695-1.146-0.742-2.574-0.123-3.764
		c3.755-7.216,2.896-15.442,1.986-24.152l-0.059-0.559c-0.939-8.613-2.007-18.399,2.391-27.59l-2.641-0.269l-17.771-2.762
		c1.276,9.849-2.595,18.647-6.337,27.153c-0.713,1.628-1.431,3.254-2.105,4.885c-0.525,1.268-1.686,2.159-3.047,2.338
		c-1.36,0.18-2.712-0.381-3.547-1.471c-0.835-1.088-1.027-2.539-0.501-3.806c0.696-1.683,1.435-3.359,2.171-5.038
		c3.467-7.878,6.741-15.321,5.674-23.157c-0.324-2.342,0.487-4.697,2.184-6.342c1.762-1.723,4.226-2.519,6.66-2.155l20.305,3.146
		c2.438,0.381,4.555,1.888,5.713,4.068c1.127,2.081,1.191,4.575,0.176,6.715c-3.459,7.229-2.558,15.486-1.686,23.472l0.06,0.575
		c0.985,9.455,2.007,19.23-2.813,28.492C194.914,155.291,193.6,156.091,192.165,156.09z"/>
	<path fill="#FED6A9" d="M72.207,186.809h-7.682c-10.598-0.012-19.187-8.601-19.199-19.199v-15.361
		c0.003-4.239,3.44-7.674,7.68-7.68h30.72c4.24,0.006,7.676,3.44,7.68,7.68v15.361C91.393,178.208,82.804,186.797,72.207,186.809z
		 M53.006,152.248v15.361c0.007,6.358,5.161,11.513,11.519,11.52h7.682c6.358-0.007,11.512-5.161,11.519-11.52v-15.361H53.006z"/>
	<path fill="#FED6A9" d="M145.166,171.449h-7.68c-2.121,0-3.841-1.719-3.841-3.84s1.72-3.84,3.841-3.84h7.68
		c2.12,0,3.84,1.719,3.84,3.84S147.286,171.449,145.166,171.449z"/>
	<path fill="#FED6A9" d="M221.965,171.449h-61.439c-2.121,0-3.84-1.719-3.84-3.84s1.719-3.84,3.84-3.84h61.439
		c2.122,0,3.842,1.719,3.842,3.84S224.087,171.449,221.965,171.449z"/>
</g>
</svg>
